%TF.GenerationSoftware,KiCad,Pcbnew,9.0.7*%
%TF.CreationDate,2026-07-08T14:11:39+02:00*%
%TF.ProjectId,TL082CP,544c3038-3243-4502-9e6b-696361645f70,rev?*%
%TF.SameCoordinates,PX5a3b5d8PY7a91ee0*%
%TF.FileFunction,Copper,L1,Top*%
%TF.FilePolarity,Positive*%
%FSLAX46Y46*%
G04 Gerber Fmt 4.6, Leading zero omitted, Abs format (unit mm)*
G04 Created by KiCad (PCBNEW 9.0.7) date 2026-07-08 14:11:39*
%MOMM*%
%LPD*%
G01*
G04 APERTURE LIST*
G04 Aperture macros list*
%AMRoundRect*
0 Rectangle with rounded corners*
0 $1 Rounding radius*
0 $2 $3 $4 $5 $6 $7 $8 $9 X,Y pos of 4 corners*
0 Add a 4 corners polygon primitive as box body*
4,1,4,$2,$3,$4,$5,$6,$7,$8,$9,$2,$3,0*
0 Add four circle primitives for the rounded corners*
1,1,$1+$1,$2,$3*
1,1,$1+$1,$4,$5*
1,1,$1+$1,$6,$7*
1,1,$1+$1,$8,$9*
0 Add four rect primitives between the rounded corners*
20,1,$1+$1,$2,$3,$4,$5,0*
20,1,$1+$1,$4,$5,$6,$7,0*
20,1,$1+$1,$6,$7,$8,$9,0*
20,1,$1+$1,$8,$9,$2,$3,0*%
G04 Aperture macros list end*
%ADD10C,0.300000*%
%TA.AperFunction,NonConductor*%
%ADD11C,0.300000*%
%TD*%
%TA.AperFunction,NonConductor*%
%ADD12C,0.200000*%
%TD*%
%TA.AperFunction,ComponentPad*%
%ADD13C,1.600000*%
%TD*%
%TA.AperFunction,ComponentPad*%
%ADD14C,3.000000*%
%TD*%
%TA.AperFunction,ComponentPad*%
%ADD15R,1.371600X1.371600*%
%TD*%
%TA.AperFunction,ComponentPad*%
%ADD16C,1.371600*%
%TD*%
%TA.AperFunction,ComponentPad*%
%ADD17R,3.000000X1.500000*%
%TD*%
%TA.AperFunction,ComponentPad*%
%ADD18O,3.000000X1.500000*%
%TD*%
%TA.AperFunction,ComponentPad*%
%ADD19R,1.508000X1.508000*%
%TD*%
%TA.AperFunction,ComponentPad*%
%ADD20C,1.508000*%
%TD*%
%TA.AperFunction,ComponentPad*%
%ADD21O,4.600000X2.300000*%
%TD*%
%TA.AperFunction,ComponentPad*%
%ADD22O,3.016000X1.508000*%
%TD*%
%TA.AperFunction,ComponentPad*%
%ADD23O,1.508000X3.016000*%
%TD*%
%TA.AperFunction,ComponentPad*%
%ADD24RoundRect,0.250000X-0.550000X-0.550000X0.550000X-0.550000X0.550000X0.550000X-0.550000X0.550000X0*%
%TD*%
%TA.AperFunction,Conductor*%
%ADD25C,0.500000*%
%TD*%
%TA.AperFunction,Conductor*%
%ADD26C,0.250000*%
%TD*%
%TA.AperFunction,Conductor*%
%ADD27C,1.000000*%
%TD*%
%TA.AperFunction,Conductor*%
%ADD28C,0.200000*%
%TD*%
G04 APERTURE END LIST*
D10*
D11*
X40521429Y83258815D02*
X40378572Y83330243D01*
X40378572Y83330243D02*
X40307143Y83401672D01*
X40307143Y83401672D02*
X40235715Y83544529D01*
X40235715Y83544529D02*
X40235715Y83615958D01*
X40235715Y83615958D02*
X40307143Y83758815D01*
X40307143Y83758815D02*
X40378572Y83830243D01*
X40378572Y83830243D02*
X40521429Y83901672D01*
X40521429Y83901672D02*
X40807143Y83901672D01*
X40807143Y83901672D02*
X40950001Y83830243D01*
X40950001Y83830243D02*
X41021429Y83758815D01*
X41021429Y83758815D02*
X41092858Y83615958D01*
X41092858Y83615958D02*
X41092858Y83544529D01*
X41092858Y83544529D02*
X41021429Y83401672D01*
X41021429Y83401672D02*
X40950001Y83330243D01*
X40950001Y83330243D02*
X40807143Y83258815D01*
X40807143Y83258815D02*
X40521429Y83258815D01*
X40521429Y83258815D02*
X40378572Y83187386D01*
X40378572Y83187386D02*
X40307143Y83115958D01*
X40307143Y83115958D02*
X40235715Y82973100D01*
X40235715Y82973100D02*
X40235715Y82687386D01*
X40235715Y82687386D02*
X40307143Y82544529D01*
X40307143Y82544529D02*
X40378572Y82473100D01*
X40378572Y82473100D02*
X40521429Y82401672D01*
X40521429Y82401672D02*
X40807143Y82401672D01*
X40807143Y82401672D02*
X40950001Y82473100D01*
X40950001Y82473100D02*
X41021429Y82544529D01*
X41021429Y82544529D02*
X41092858Y82687386D01*
X41092858Y82687386D02*
X41092858Y82973100D01*
X41092858Y82973100D02*
X41021429Y83115958D01*
X41021429Y83115958D02*
X40950001Y83187386D01*
X40950001Y83187386D02*
X40807143Y83258815D01*
X41950000Y83258815D02*
X41807143Y83330243D01*
X41807143Y83330243D02*
X41735714Y83401672D01*
X41735714Y83401672D02*
X41664286Y83544529D01*
X41664286Y83544529D02*
X41664286Y83615958D01*
X41664286Y83615958D02*
X41735714Y83758815D01*
X41735714Y83758815D02*
X41807143Y83830243D01*
X41807143Y83830243D02*
X41950000Y83901672D01*
X41950000Y83901672D02*
X42235714Y83901672D01*
X42235714Y83901672D02*
X42378572Y83830243D01*
X42378572Y83830243D02*
X42450000Y83758815D01*
X42450000Y83758815D02*
X42521429Y83615958D01*
X42521429Y83615958D02*
X42521429Y83544529D01*
X42521429Y83544529D02*
X42450000Y83401672D01*
X42450000Y83401672D02*
X42378572Y83330243D01*
X42378572Y83330243D02*
X42235714Y83258815D01*
X42235714Y83258815D02*
X41950000Y83258815D01*
X41950000Y83258815D02*
X41807143Y83187386D01*
X41807143Y83187386D02*
X41735714Y83115958D01*
X41735714Y83115958D02*
X41664286Y82973100D01*
X41664286Y82973100D02*
X41664286Y82687386D01*
X41664286Y82687386D02*
X41735714Y82544529D01*
X41735714Y82544529D02*
X41807143Y82473100D01*
X41807143Y82473100D02*
X41950000Y82401672D01*
X41950000Y82401672D02*
X42235714Y82401672D01*
X42235714Y82401672D02*
X42378572Y82473100D01*
X42378572Y82473100D02*
X42450000Y82544529D01*
X42450000Y82544529D02*
X42521429Y82687386D01*
X42521429Y82687386D02*
X42521429Y82973100D01*
X42521429Y82973100D02*
X42450000Y83115958D01*
X42450000Y83115958D02*
X42378572Y83187386D01*
X42378572Y83187386D02*
X42235714Y83258815D01*
X43164285Y82544529D02*
X43235714Y82473100D01*
X43235714Y82473100D02*
X43164285Y82401672D01*
X43164285Y82401672D02*
X43092857Y82473100D01*
X43092857Y82473100D02*
X43164285Y82544529D01*
X43164285Y82544529D02*
X43164285Y82401672D01*
X43950000Y82401672D02*
X44235714Y82401672D01*
X44235714Y82401672D02*
X44378571Y82473100D01*
X44378571Y82473100D02*
X44450000Y82544529D01*
X44450000Y82544529D02*
X44592857Y82758815D01*
X44592857Y82758815D02*
X44664286Y83044529D01*
X44664286Y83044529D02*
X44664286Y83615958D01*
X44664286Y83615958D02*
X44592857Y83758815D01*
X44592857Y83758815D02*
X44521429Y83830243D01*
X44521429Y83830243D02*
X44378571Y83901672D01*
X44378571Y83901672D02*
X44092857Y83901672D01*
X44092857Y83901672D02*
X43950000Y83830243D01*
X43950000Y83830243D02*
X43878571Y83758815D01*
X43878571Y83758815D02*
X43807143Y83615958D01*
X43807143Y83615958D02*
X43807143Y83258815D01*
X43807143Y83258815D02*
X43878571Y83115958D01*
X43878571Y83115958D02*
X43950000Y83044529D01*
X43950000Y83044529D02*
X44092857Y82973100D01*
X44092857Y82973100D02*
X44378571Y82973100D01*
X44378571Y82973100D02*
X44521429Y83044529D01*
X44521429Y83044529D02*
X44592857Y83115958D01*
X44592857Y83115958D02*
X44664286Y83258815D01*
X45307142Y82401672D02*
X45307142Y83401672D01*
X45307142Y83258815D02*
X45378571Y83330243D01*
X45378571Y83330243D02*
X45521428Y83401672D01*
X45521428Y83401672D02*
X45735714Y83401672D01*
X45735714Y83401672D02*
X45878571Y83330243D01*
X45878571Y83330243D02*
X45950000Y83187386D01*
X45950000Y83187386D02*
X45950000Y82401672D01*
X45950000Y83187386D02*
X46021428Y83330243D01*
X46021428Y83330243D02*
X46164285Y83401672D01*
X46164285Y83401672D02*
X46378571Y83401672D01*
X46378571Y83401672D02*
X46521428Y83330243D01*
X46521428Y83330243D02*
X46592857Y83187386D01*
X46592857Y83187386D02*
X46592857Y82401672D01*
X47307142Y82401672D02*
X47307142Y83401672D01*
X47307142Y83258815D02*
X47378571Y83330243D01*
X47378571Y83330243D02*
X47521428Y83401672D01*
X47521428Y83401672D02*
X47735714Y83401672D01*
X47735714Y83401672D02*
X47878571Y83330243D01*
X47878571Y83330243D02*
X47950000Y83187386D01*
X47950000Y83187386D02*
X47950000Y82401672D01*
X47950000Y83187386D02*
X48021428Y83330243D01*
X48021428Y83330243D02*
X48164285Y83401672D01*
X48164285Y83401672D02*
X48378571Y83401672D01*
X48378571Y83401672D02*
X48521428Y83330243D01*
X48521428Y83330243D02*
X48592857Y83187386D01*
X48592857Y83187386D02*
X48592857Y82401672D01*
D12*
X0Y75862000D02*
X0Y81866420D01*
X88900000Y81866420D02*
X88900000Y75862000D01*
X0Y81280000D02*
X88900000Y81280000D01*
X0Y81280000D02*
X1126504Y81866421D01*
X0Y81280000D02*
X1126504Y80693579D01*
X88900000Y81280000D02*
X87773496Y80693579D01*
X88900000Y81280000D02*
X87773496Y81866421D01*
D10*
D11*
X91358328Y31966716D02*
X91358328Y32966716D01*
X91358328Y32966716D02*
X92858328Y32323859D01*
X91358328Y34252430D02*
X91358328Y33538144D01*
X91358328Y33538144D02*
X92072614Y33466716D01*
X92072614Y33466716D02*
X92001185Y33538144D01*
X92001185Y33538144D02*
X91929757Y33681001D01*
X91929757Y33681001D02*
X91929757Y34038144D01*
X91929757Y34038144D02*
X92001185Y34181001D01*
X92001185Y34181001D02*
X92072614Y34252430D01*
X92072614Y34252430D02*
X92215471Y34323859D01*
X92215471Y34323859D02*
X92572614Y34323859D01*
X92572614Y34323859D02*
X92715471Y34252430D01*
X92715471Y34252430D02*
X92786900Y34181001D01*
X92786900Y34181001D02*
X92858328Y34038144D01*
X92858328Y34038144D02*
X92858328Y33681001D01*
X92858328Y33681001D02*
X92786900Y33538144D01*
X92786900Y33538144D02*
X92715471Y33466716D01*
X92715471Y34966715D02*
X92786900Y35038144D01*
X92786900Y35038144D02*
X92858328Y34966715D01*
X92858328Y34966715D02*
X92786900Y34895287D01*
X92786900Y34895287D02*
X92715471Y34966715D01*
X92715471Y34966715D02*
X92858328Y34966715D01*
X91358328Y35538144D02*
X91358328Y36466716D01*
X91358328Y36466716D02*
X91929757Y35966716D01*
X91929757Y35966716D02*
X91929757Y36181001D01*
X91929757Y36181001D02*
X92001185Y36323858D01*
X92001185Y36323858D02*
X92072614Y36395287D01*
X92072614Y36395287D02*
X92215471Y36466716D01*
X92215471Y36466716D02*
X92572614Y36466716D01*
X92572614Y36466716D02*
X92715471Y36395287D01*
X92715471Y36395287D02*
X92786900Y36323858D01*
X92786900Y36323858D02*
X92858328Y36181001D01*
X92858328Y36181001D02*
X92858328Y35752430D01*
X92858328Y35752430D02*
X92786900Y35609573D01*
X92786900Y35609573D02*
X92715471Y35538144D01*
X91358328Y37752429D02*
X91358328Y37466715D01*
X91358328Y37466715D02*
X91429757Y37323858D01*
X91429757Y37323858D02*
X91501185Y37252429D01*
X91501185Y37252429D02*
X91715471Y37109572D01*
X91715471Y37109572D02*
X92001185Y37038144D01*
X92001185Y37038144D02*
X92572614Y37038144D01*
X92572614Y37038144D02*
X92715471Y37109572D01*
X92715471Y37109572D02*
X92786900Y37181001D01*
X92786900Y37181001D02*
X92858328Y37323858D01*
X92858328Y37323858D02*
X92858328Y37609572D01*
X92858328Y37609572D02*
X92786900Y37752429D01*
X92786900Y37752429D02*
X92715471Y37823858D01*
X92715471Y37823858D02*
X92572614Y37895287D01*
X92572614Y37895287D02*
X92215471Y37895287D01*
X92215471Y37895287D02*
X92072614Y37823858D01*
X92072614Y37823858D02*
X92001185Y37752429D01*
X92001185Y37752429D02*
X91929757Y37609572D01*
X91929757Y37609572D02*
X91929757Y37323858D01*
X91929757Y37323858D02*
X92001185Y37181001D01*
X92001185Y37181001D02*
X92072614Y37109572D01*
X92072614Y37109572D02*
X92215471Y37038144D01*
X91501185Y38466715D02*
X91429757Y38538143D01*
X91429757Y38538143D02*
X91358328Y38681000D01*
X91358328Y38681000D02*
X91358328Y39038143D01*
X91358328Y39038143D02*
X91429757Y39181000D01*
X91429757Y39181000D02*
X91501185Y39252429D01*
X91501185Y39252429D02*
X91644042Y39323858D01*
X91644042Y39323858D02*
X91786900Y39323858D01*
X91786900Y39323858D02*
X92001185Y39252429D01*
X92001185Y39252429D02*
X92858328Y38395286D01*
X92858328Y38395286D02*
X92858328Y39323858D01*
X92858328Y39966714D02*
X91858328Y39966714D01*
X92001185Y39966714D02*
X91929757Y40038143D01*
X91929757Y40038143D02*
X91858328Y40181000D01*
X91858328Y40181000D02*
X91858328Y40395286D01*
X91858328Y40395286D02*
X91929757Y40538143D01*
X91929757Y40538143D02*
X92072614Y40609571D01*
X92072614Y40609571D02*
X92858328Y40609571D01*
X92072614Y40609571D02*
X91929757Y40681000D01*
X91929757Y40681000D02*
X91858328Y40823857D01*
X91858328Y40823857D02*
X91858328Y41038143D01*
X91858328Y41038143D02*
X91929757Y41181000D01*
X91929757Y41181000D02*
X92072614Y41252429D01*
X92072614Y41252429D02*
X92858328Y41252429D01*
X92858328Y41966714D02*
X91858328Y41966714D01*
X92001185Y41966714D02*
X91929757Y42038143D01*
X91929757Y42038143D02*
X91858328Y42181000D01*
X91858328Y42181000D02*
X91858328Y42395286D01*
X91858328Y42395286D02*
X91929757Y42538143D01*
X91929757Y42538143D02*
X92072614Y42609571D01*
X92072614Y42609571D02*
X92858328Y42609571D01*
X92072614Y42609571D02*
X91929757Y42681000D01*
X91929757Y42681000D02*
X91858328Y42823857D01*
X91858328Y42823857D02*
X91858328Y43038143D01*
X91858328Y43038143D02*
X91929757Y43181000D01*
X91929757Y43181000D02*
X92072614Y43252429D01*
X92072614Y43252429D02*
X92858328Y43252429D01*
D12*
X89126000Y75362000D02*
X94566420Y75362000D01*
X94566420Y0D02*
X89126000Y0D01*
X93980000Y75362000D02*
X93980000Y0D01*
X93980000Y75362000D02*
X94566421Y74235496D01*
X93980000Y75362000D02*
X93393579Y74235496D01*
X93980000Y0D02*
X93393579Y1126504D01*
X93980000Y0D02*
X94566421Y1126504D01*
D13*
%TO.P,R1,1*%
%TO.N,Net-(U2A-+)*%
X48514000Y48260000D03*
%TO.P,R1,2*%
%TO.N,Net-(C1-Pad2)*%
X40894000Y48260000D03*
%TD*%
D14*
%TO.P,J1,S*%
%TO.N,/audio_signal/Audio-IN*%
X20696000Y54343000D03*
%TO.P,J1,SN*%
%TO.N,unconnected-(J1-PadSN)*%
X20696000Y38113000D03*
%TO.P,J1,T*%
%TO.N,GND*%
X7996000Y54343000D03*
%TO.P,J1,TN*%
%TO.N,unconnected-(J1-PadTN)*%
X7996000Y38113000D03*
%TD*%
D13*
%TO.P,C5,1*%
%TO.N,+12V*%
X50840000Y21336000D03*
%TO.P,C5,2*%
%TO.N,GND*%
X50840000Y26336000D03*
%TD*%
D15*
%TO.P,U2,1,OUT*%
%TO.N,Net-(U2A-OUT)*%
X41148000Y41910000D03*
D16*
%TO.P,U2,2,-*%
%TO.N,GND*%
X41148000Y39370000D03*
%TO.P,U2,3,+*%
%TO.N,Net-(U2A-+)*%
X41148000Y36830000D03*
%TO.P,U2,4,V-*%
%TO.N,-12V*%
X41148000Y34290000D03*
%TO.P,U2,5*%
%TO.N,N/C*%
X48768000Y34290000D03*
%TO.P,U2,6*%
X48768000Y36830000D03*
%TO.P,U2,7*%
X48768000Y39370000D03*
%TO.P,U2,8,V+*%
%TO.N,+12V*%
X48768000Y41910000D03*
%TD*%
D17*
%TO.P,U1,1,-VIN*%
%TO.N,/dual supply voltage/-VIN*%
X43434000Y15213500D03*
D18*
%TO.P,U1,2,+VIN*%
%TO.N,/dual supply voltage/+VIN*%
X43434000Y17753500D03*
%TO.P,U1,4,+VOUT*%
%TO.N,+12V*%
X43434000Y22833500D03*
%TO.P,U1,5,Common*%
%TO.N,GND*%
X43434000Y25373500D03*
%TO.P,U1,6,-VOUT*%
%TO.N,-12V*%
X43434000Y27913500D03*
%TD*%
D19*
%TO.P,R3,1*%
%TO.N,Net-(U2A-+)*%
X66040000Y25360000D03*
D20*
%TO.P,R3,2*%
%TO.N,/audio_signal/Audio-OUT*%
X66040000Y22860000D03*
%TO.P,R3,3*%
%TO.N,GND*%
X66040000Y20360000D03*
D21*
%TO.P,R3,S1*%
%TO.N,N/C*%
X73040000Y27260000D03*
%TO.P,R3,S2*%
X73040000Y18460000D03*
%TD*%
D13*
%TO.P,C6,1*%
%TO.N,-12V*%
X37084000Y29170000D03*
%TO.P,C6,2*%
%TO.N,GND*%
X37084000Y24170000D03*
%TD*%
D22*
%TO.P,J3,1*%
%TO.N,/dual supply voltage/+VIN*%
X22860000Y16160000D03*
%TO.P,J3,2*%
%TO.N,/dual supply voltage/-VIN*%
X22860000Y10160000D03*
D23*
%TO.P,J3,3*%
%TO.N,unconnected-(J3-Pad3)*%
X27560000Y13160000D03*
%TD*%
D13*
%TO.P,C4,1*%
%TO.N,+12V*%
X52324000Y42124000D03*
%TO.P,C4,2*%
%TO.N,GND*%
X52324000Y37124000D03*
%TD*%
D24*
%TO.P,C1,1*%
%TO.N,/audio_signal/Audio-IN*%
X33842888Y49276000D03*
D13*
%TO.P,C1,2*%
%TO.N,Net-(C1-Pad2)*%
X35842888Y49276000D03*
%TD*%
%TO.P,R2,1*%
%TO.N,/audio_signal/Audio-IN*%
X40640000Y53340000D03*
%TO.P,R2,2*%
%TO.N,GND*%
X48260000Y53340000D03*
%TD*%
D24*
%TO.P,C2,1*%
%TO.N,Net-(U2A-OUT)*%
X58960000Y32258000D03*
D13*
%TO.P,C2,2*%
%TO.N,/audio_signal/Audio-OUT*%
X60960000Y32258000D03*
%TD*%
D14*
%TO.P,J2,S*%
%TO.N,/audio_signal/Audio-OUT*%
X79925000Y55376750D03*
%TO.P,J2,SN*%
%TO.N,unconnected-(J2-PadSN)*%
X79925000Y39146750D03*
%TO.P,J2,T*%
%TO.N,GND*%
X67225000Y55376750D03*
%TO.P,J2,TN*%
%TO.N,unconnected-(J2-PadTN)*%
X67225000Y39146750D03*
%TD*%
D13*
%TO.P,C3,1*%
%TO.N,-12V*%
X37084000Y36870000D03*
%TO.P,C3,2*%
%TO.N,GND*%
X37084000Y41870000D03*
%TD*%
D25*
%TO.N,GND*%
X67225000Y55376750D02*
X64181750Y58420000D01*
X66040000Y20360000D02*
X65286000Y19606000D01*
X42418000Y38100000D02*
X51348000Y38100000D01*
X48260000Y55880000D02*
X45720000Y58420000D01*
X34250000Y24170000D02*
X30480000Y27940000D01*
X50800000Y58420000D02*
X48260000Y55880000D01*
X30480000Y41870000D02*
X20469000Y41870000D01*
X64181750Y58420000D02*
X50800000Y58420000D01*
X30480000Y27940000D02*
X30480000Y41870000D01*
X41648000Y19606000D02*
X37084000Y24170000D01*
X43407500Y25400000D02*
X43434000Y25373500D01*
X37084000Y24170000D02*
X38314000Y25400000D01*
X48260000Y53340000D02*
X48260000Y55880000D01*
X49904000Y25400000D02*
X43460500Y25400000D01*
X38314000Y25400000D02*
X43407500Y25400000D01*
X52324000Y37084000D02*
X50840000Y35600000D01*
X35774000Y43180000D02*
X31790000Y43180000D01*
X41148000Y39370000D02*
X42418000Y38100000D01*
X37084000Y24170000D02*
X34250000Y24170000D01*
X51348000Y38100000D02*
X52324000Y37124000D01*
X31790000Y43180000D02*
X30480000Y41870000D01*
X65286000Y19606000D02*
X41648000Y19606000D01*
X37084000Y41870000D02*
X35774000Y43180000D01*
X7996000Y54343000D02*
X12073000Y58420000D01*
X20469000Y41870000D02*
X7996000Y54343000D01*
X52324000Y37124000D02*
X52324000Y37084000D01*
X12073000Y58420000D02*
X45720000Y58420000D01*
X50840000Y35600000D02*
X50840000Y26336000D01*
X43460500Y25400000D02*
X43434000Y25373500D01*
X50840000Y26336000D02*
X49904000Y25400000D01*
D26*
%TO.N,/audio_signal/Audio-IN*%
X37906888Y53340000D02*
X36636888Y52070000D01*
X33842888Y49276000D02*
X36636888Y52070000D01*
X20696000Y54343000D02*
X28775888Y54343000D01*
X28775888Y54343000D02*
X33842888Y49276000D01*
X40640000Y53340000D02*
X37906888Y53340000D01*
D27*
%TO.N,+12V*%
X48768000Y41932000D02*
X48960000Y42124000D01*
X48960000Y42124000D02*
X52324000Y42124000D01*
X49342500Y22833500D02*
X50840000Y21336000D01*
X55880000Y26376000D02*
X50840000Y21336000D01*
X43434000Y22833500D02*
X49342500Y22833500D01*
X55880000Y40640000D02*
X55880000Y26376000D01*
X54396000Y42124000D02*
X55880000Y40640000D01*
X48768000Y41910000D02*
X48768000Y41932000D01*
X52324000Y42124000D02*
X54396000Y42124000D01*
D26*
%TO.N,-12V*%
X37084000Y29170000D02*
X37084000Y29845000D01*
X43407500Y27940000D02*
X43434000Y27913500D01*
X38314000Y27940000D02*
X43407500Y27940000D01*
X37084000Y29170000D02*
X38314000Y27940000D01*
X37084000Y36870000D02*
X38568000Y36870000D01*
X41148000Y33909000D02*
X41148000Y34290000D01*
X37084000Y29845000D02*
X41148000Y33909000D01*
X38568000Y36870000D02*
X41148000Y34290000D01*
%TO.N,/audio_signal/Audio-OUT*%
X60960000Y32258000D02*
X60960000Y25400000D01*
X79925000Y55376750D02*
X76200000Y51651750D01*
X78740000Y25400000D02*
X76200000Y22860000D01*
X78740000Y27940000D02*
X78740000Y25400000D01*
X76200000Y22860000D02*
X71120000Y22860000D01*
X63500000Y22860000D02*
X66040000Y22860000D01*
X60960000Y25400000D02*
X63500000Y22860000D01*
X71120000Y22860000D02*
X66040000Y22860000D01*
X76200000Y30480000D02*
X78740000Y27940000D01*
X76200000Y51651750D02*
X76200000Y30480000D01*
D27*
%TO.N,/dual supply voltage/-VIN*%
X35533500Y15213500D02*
X30480000Y10160000D01*
X30480000Y10160000D02*
X22860000Y10160000D01*
X43434000Y15213500D02*
X35533500Y15213500D01*
%TO.N,/dual supply voltage/+VIN*%
X43434000Y17753500D02*
X24453500Y17753500D01*
X24453500Y17753500D02*
X22860000Y16160000D01*
D26*
%TO.N,Net-(U2A-+)*%
X48514000Y48260000D02*
X53340000Y48260000D01*
D28*
X43180000Y45720000D02*
X45720000Y48260000D01*
D26*
X66020000Y25380000D02*
X66040000Y25360000D01*
X68580000Y33020000D02*
X68580000Y27940000D01*
D28*
X45720000Y48260000D02*
X48514000Y48260000D01*
D26*
X53340000Y48260000D02*
X68580000Y33020000D01*
D28*
X40640000Y45720000D02*
X43180000Y45720000D01*
X39878000Y44958000D02*
X40640000Y45720000D01*
X39878000Y38100000D02*
X39878000Y44958000D01*
D26*
X68580000Y27940000D02*
X66020000Y25380000D01*
D28*
X41148000Y36830000D02*
X39878000Y38100000D01*
D26*
%TO.N,Net-(C1-Pad2)*%
X40894000Y48260000D02*
X36858888Y48260000D01*
X36858888Y48260000D02*
X35842888Y49276000D01*
%TO.N,Net-(U2A-OUT)*%
X55880000Y43180000D02*
X53340000Y45720000D01*
D28*
X55880000Y43180000D02*
X58960000Y40100000D01*
D26*
X44958000Y45720000D02*
X41148000Y41910000D01*
X53340000Y45720000D02*
X44958000Y45720000D01*
D28*
X58960000Y40100000D02*
X58960000Y32258000D01*
%TD*%
M02*
