%TF.GenerationSoftware,KiCad,Pcbnew,9.0.7*%
%TF.CreationDate,2026-07-08T14:11:45+02:00*%
%TF.ProjectId,TL082CP,544c3038-3243-4502-9e6b-696361645f70,rev?*%
%TF.SameCoordinates,PX5a3b5d8PY7a91ee0*%
%TF.FileFunction,Drillmap*%
%TF.FilePolarity,Positive*%
%FSLAX45Y45*%
G04 Gerber Fmt 4.5, Leading zero omitted, Abs format (unit mm)*
G04 Created by KiCad (PCBNEW 9.0.7) date 2026-07-08 14:11:45*
%MOMM*%
%LPD*%
G01*
G04 APERTURE LIST*
%ADD10C,0.050000*%
%ADD11C,0.200000*%
%ADD12C,0.100000*%
%ADD13C,0.140000*%
%ADD14C,0.180000*%
G04 APERTURE END LIST*
D10*
X0Y7536200D02*
X8862600Y7536200D01*
X8862600Y0D01*
X0Y0D01*
X0Y7536200D01*
D11*
D12*
X3344289Y4967600D02*
X3424289Y4887600D01*
X3424289Y4967600D02*
X3344289Y4887600D01*
X3544289Y4967600D02*
X3624289Y4887600D01*
X3624289Y4967600D02*
X3544289Y4887600D01*
X3668400Y4227000D02*
X3748400Y4147000D01*
X3748400Y4227000D02*
X3668400Y4147000D01*
X3668400Y3727000D02*
X3748400Y3647000D01*
X3748400Y3727000D02*
X3668400Y3647000D01*
X3668400Y2957000D02*
X3748400Y2877000D01*
X3748400Y2957000D02*
X3668400Y2877000D01*
X3668400Y2457000D02*
X3748400Y2377000D01*
X3748400Y2457000D02*
X3668400Y2377000D01*
X4024000Y5374000D02*
X4104000Y5294000D01*
X4104000Y5374000D02*
X4024000Y5294000D01*
X4049400Y4866000D02*
X4129400Y4786000D01*
X4129400Y4866000D02*
X4049400Y4786000D01*
X4786000Y5374000D02*
X4866000Y5294000D01*
X4866000Y5374000D02*
X4786000Y5294000D01*
X4811400Y4866000D02*
X4891400Y4786000D01*
X4891400Y4866000D02*
X4811400Y4786000D01*
X5044000Y2673600D02*
X5124000Y2593600D01*
X5124000Y2673600D02*
X5044000Y2593600D01*
X5044000Y2173600D02*
X5124000Y2093600D01*
X5124000Y2173600D02*
X5044000Y2093600D01*
X5192400Y4252400D02*
X5272400Y4172400D01*
X5272400Y4252400D02*
X5192400Y4172400D01*
X5192400Y3752400D02*
X5272400Y3672400D01*
X5272400Y3752400D02*
X5192400Y3672400D01*
X5856000Y3265800D02*
X5936000Y3185800D01*
X5936000Y3265800D02*
X5856000Y3185800D01*
X6056000Y3265800D02*
X6136000Y3185800D01*
X6136000Y3265800D02*
X6056000Y3185800D01*
X4157980Y4191000D02*
G75*
G02*
X4071620Y4191000I-43180J0D01*
G01*
X4071620Y4191000D02*
G75*
G02*
X4157980Y4191000I43180J0D01*
G01*
X4157980Y3937000D02*
G75*
G02*
X4071620Y3937000I-43180J0D01*
G01*
X4071620Y3937000D02*
G75*
G02*
X4157980Y3937000I43180J0D01*
G01*
X4157980Y3683000D02*
G75*
G02*
X4071620Y3683000I-43180J0D01*
G01*
X4071620Y3683000D02*
G75*
G02*
X4157980Y3683000I43180J0D01*
G01*
X4157980Y3429000D02*
G75*
G02*
X4071620Y3429000I-43180J0D01*
G01*
X4071620Y3429000D02*
G75*
G02*
X4157980Y3429000I43180J0D01*
G01*
X4919980Y4191000D02*
G75*
G02*
X4833620Y4191000I-43180J0D01*
G01*
X4833620Y4191000D02*
G75*
G02*
X4919980Y4191000I43180J0D01*
G01*
X4919980Y3937000D02*
G75*
G02*
X4833620Y3937000I-43180J0D01*
G01*
X4833620Y3937000D02*
G75*
G02*
X4919980Y3937000I43180J0D01*
G01*
X4919980Y3683000D02*
G75*
G02*
X4833620Y3683000I-43180J0D01*
G01*
X4833620Y3683000D02*
G75*
G02*
X4919980Y3683000I43180J0D01*
G01*
X4919980Y3429000D02*
G75*
G02*
X4833620Y3429000I-43180J0D01*
G01*
X4833620Y3429000D02*
G75*
G02*
X4919980Y3429000I43180J0D01*
G01*
X2286000Y1666000D02*
X2286000Y1566000D01*
X2236000Y1616000D02*
X2336000Y1616000D01*
X2316000Y1666000D02*
X2256000Y1666000D01*
X2256000Y1566000D02*
G75*
G02*
X2256000Y1666000I0J50000D01*
G01*
X2256000Y1566000D02*
X2316000Y1566000D01*
X2316000Y1566000D02*
G75*
G03*
X2316000Y1666000I0J50000D01*
G01*
X2286000Y1066000D02*
X2286000Y966000D01*
X2236000Y1016000D02*
X2336000Y1016000D01*
X2316000Y1066000D02*
X2256000Y1066000D01*
X2256000Y966000D02*
G75*
G02*
X2256000Y1066000I0J50000D01*
G01*
X2256000Y966000D02*
X2316000Y966000D01*
X2316000Y966000D02*
G75*
G03*
X2316000Y1066000I0J50000D01*
G01*
X2756000Y1366000D02*
X2756000Y1266000D01*
X2706000Y1316000D02*
X2806000Y1316000D01*
X2806000Y1286000D02*
X2806000Y1346000D01*
X2706000Y1346000D02*
G75*
G02*
X2806000Y1346000I50000J0D01*
G01*
X2706000Y1346000D02*
X2706000Y1286000D01*
X2706000Y1286000D02*
G75*
G03*
X2806000Y1286000I50000J0D01*
G01*
X4343400Y2841350D02*
X4343400Y2741350D01*
X4293400Y2791350D02*
X4393400Y2791350D01*
X4343400Y2587350D02*
X4343400Y2487350D01*
X4293400Y2537350D02*
X4393400Y2537350D01*
X4343400Y2333350D02*
X4343400Y2233350D01*
X4293400Y2283350D02*
X4393400Y2283350D01*
X4343400Y1825350D02*
X4343400Y1725350D01*
X4293400Y1775350D02*
X4393400Y1775350D01*
X4343400Y1571350D02*
X4343400Y1471350D01*
X4293400Y1521350D02*
X4393400Y1521350D01*
X6604000Y2586000D02*
X6604000Y2486000D01*
X6554000Y2536000D02*
X6654000Y2536000D01*
X6604000Y2336000D02*
X6604000Y2236000D01*
X6554000Y2286000D02*
X6654000Y2286000D01*
X6604000Y2086000D02*
X6604000Y1986000D01*
X6554000Y2036000D02*
X6654000Y2036000D01*
D13*
X849098Y5384802D02*
X849098Y5483798D01*
X750102Y5483798D01*
X750102Y5384802D01*
X849098Y5384802D01*
X849098Y3761802D02*
X849098Y3860798D01*
X750102Y3860798D01*
X750102Y3761802D01*
X849098Y3761802D01*
X2119098Y5384802D02*
X2119098Y5483798D01*
X2020102Y5483798D01*
X2020102Y5384802D01*
X2119098Y5384802D01*
X2119098Y3761802D02*
X2119098Y3860798D01*
X2020102Y3860798D01*
X2020102Y3761802D01*
X2119098Y3761802D01*
X6771998Y5488177D02*
X6771998Y5587173D01*
X6673002Y5587173D01*
X6673002Y5488177D01*
X6771998Y5488177D01*
X6771998Y3865177D02*
X6771998Y3964173D01*
X6673002Y3964173D01*
X6673002Y3865177D01*
X6771998Y3865177D01*
X8041998Y5488177D02*
X8041998Y5587173D01*
X7943002Y5587173D01*
X7943002Y5488177D01*
X8041998Y5488177D01*
X8041998Y3865177D02*
X8041998Y3964173D01*
X7943002Y3964173D01*
X7943002Y3865177D01*
X8041998Y3865177D01*
D14*
X7304000Y2636000D02*
X7394000Y2726000D01*
X7304000Y2816000D01*
X7214000Y2726000D01*
X7304000Y2636000D01*
D12*
X7324000Y2816000D02*
X7284000Y2816000D01*
X7284000Y2636000D02*
G75*
G02*
X7284000Y2816000I0J90000D01*
G01*
X7284000Y2636000D02*
X7324000Y2636000D01*
X7324000Y2636000D02*
G75*
G03*
X7324000Y2816000I0J90000D01*
G01*
D14*
X7304000Y1756000D02*
X7394000Y1846000D01*
X7304000Y1936000D01*
X7214000Y1846000D01*
X7304000Y1756000D01*
D12*
X7324000Y1936000D02*
X7284000Y1936000D01*
X7284000Y1756000D02*
G75*
G02*
X7284000Y1936000I0J90000D01*
G01*
X7284000Y1756000D02*
X7324000Y1756000D01*
X7324000Y1756000D02*
G75*
G03*
X7324000Y1936000I0J90000D01*
G01*
D11*
X258277Y-313984D02*
X258277Y-113984D01*
X258277Y-113984D02*
X305896Y-113984D01*
X305896Y-113984D02*
X334467Y-123508D01*
X334467Y-123508D02*
X353515Y-142555D01*
X353515Y-142555D02*
X363039Y-161603D01*
X363039Y-161603D02*
X372562Y-199698D01*
X372562Y-199698D02*
X372562Y-228269D01*
X372562Y-228269D02*
X363039Y-266365D01*
X363039Y-266365D02*
X353515Y-285412D01*
X353515Y-285412D02*
X334467Y-304460D01*
X334467Y-304460D02*
X305896Y-313984D01*
X305896Y-313984D02*
X258277Y-313984D01*
X458277Y-313984D02*
X458277Y-180650D01*
X458277Y-218746D02*
X467801Y-199698D01*
X467801Y-199698D02*
X477324Y-190174D01*
X477324Y-190174D02*
X496372Y-180650D01*
X496372Y-180650D02*
X515420Y-180650D01*
X582086Y-313984D02*
X582086Y-180650D01*
X582086Y-113984D02*
X572563Y-123508D01*
X572563Y-123508D02*
X582086Y-133031D01*
X582086Y-133031D02*
X591610Y-123508D01*
X591610Y-123508D02*
X582086Y-113984D01*
X582086Y-113984D02*
X582086Y-133031D01*
X705896Y-313984D02*
X686848Y-304460D01*
X686848Y-304460D02*
X677324Y-285412D01*
X677324Y-285412D02*
X677324Y-113984D01*
X810658Y-313984D02*
X791610Y-304460D01*
X791610Y-304460D02*
X782086Y-285412D01*
X782086Y-285412D02*
X782086Y-113984D01*
X1039229Y-313984D02*
X1039229Y-113984D01*
X1039229Y-113984D02*
X1105896Y-256841D01*
X1105896Y-256841D02*
X1172563Y-113984D01*
X1172563Y-113984D02*
X1172563Y-313984D01*
X1353515Y-313984D02*
X1353515Y-209222D01*
X1353515Y-209222D02*
X1343991Y-190174D01*
X1343991Y-190174D02*
X1324944Y-180650D01*
X1324944Y-180650D02*
X1286848Y-180650D01*
X1286848Y-180650D02*
X1267801Y-190174D01*
X1353515Y-304460D02*
X1334467Y-313984D01*
X1334467Y-313984D02*
X1286848Y-313984D01*
X1286848Y-313984D02*
X1267801Y-304460D01*
X1267801Y-304460D02*
X1258277Y-285412D01*
X1258277Y-285412D02*
X1258277Y-266365D01*
X1258277Y-266365D02*
X1267801Y-247317D01*
X1267801Y-247317D02*
X1286848Y-237793D01*
X1286848Y-237793D02*
X1334467Y-237793D01*
X1334467Y-237793D02*
X1353515Y-228269D01*
X1448753Y-180650D02*
X1448753Y-380650D01*
X1448753Y-190174D02*
X1467801Y-180650D01*
X1467801Y-180650D02*
X1505896Y-180650D01*
X1505896Y-180650D02*
X1524943Y-190174D01*
X1524943Y-190174D02*
X1534467Y-199698D01*
X1534467Y-199698D02*
X1543991Y-218746D01*
X1543991Y-218746D02*
X1543991Y-275889D01*
X1543991Y-275889D02*
X1534467Y-294936D01*
X1534467Y-294936D02*
X1524943Y-304460D01*
X1524943Y-304460D02*
X1505896Y-313984D01*
X1505896Y-313984D02*
X1467801Y-313984D01*
X1467801Y-313984D02*
X1448753Y-304460D01*
X1629705Y-294936D02*
X1639229Y-304460D01*
X1639229Y-304460D02*
X1629705Y-313984D01*
X1629705Y-313984D02*
X1620182Y-304460D01*
X1620182Y-304460D02*
X1629705Y-294936D01*
X1629705Y-294936D02*
X1629705Y-313984D01*
X1629705Y-190174D02*
X1639229Y-199698D01*
X1639229Y-199698D02*
X1629705Y-209222D01*
X1629705Y-209222D02*
X1620182Y-199698D01*
X1620182Y-199698D02*
X1629705Y-190174D01*
X1629705Y-190174D02*
X1629705Y-209222D01*
D12*
X-82500Y-602500D02*
X-2500Y-682500D01*
X-2500Y-602500D02*
X-82500Y-682500D01*
D11*
X296372Y-533984D02*
X315420Y-533984D01*
X315420Y-533984D02*
X334467Y-543508D01*
X334467Y-543508D02*
X343991Y-553031D01*
X343991Y-553031D02*
X353515Y-572079D01*
X353515Y-572079D02*
X363039Y-610174D01*
X363039Y-610174D02*
X363039Y-657793D01*
X363039Y-657793D02*
X353515Y-695889D01*
X353515Y-695889D02*
X343991Y-714936D01*
X343991Y-714936D02*
X334467Y-724460D01*
X334467Y-724460D02*
X315420Y-733984D01*
X315420Y-733984D02*
X296372Y-733984D01*
X296372Y-733984D02*
X277324Y-724460D01*
X277324Y-724460D02*
X267801Y-714936D01*
X267801Y-714936D02*
X258277Y-695889D01*
X258277Y-695889D02*
X248753Y-657793D01*
X248753Y-657793D02*
X248753Y-610174D01*
X248753Y-610174D02*
X258277Y-572079D01*
X258277Y-572079D02*
X267801Y-553031D01*
X267801Y-553031D02*
X277324Y-543508D01*
X277324Y-543508D02*
X296372Y-533984D01*
X448753Y-714936D02*
X458277Y-724460D01*
X458277Y-724460D02*
X448753Y-733984D01*
X448753Y-733984D02*
X439229Y-724460D01*
X439229Y-724460D02*
X448753Y-714936D01*
X448753Y-714936D02*
X448753Y-733984D01*
X572563Y-619698D02*
X553515Y-610174D01*
X553515Y-610174D02*
X543991Y-600650D01*
X543991Y-600650D02*
X534467Y-581603D01*
X534467Y-581603D02*
X534467Y-572079D01*
X534467Y-572079D02*
X543991Y-553031D01*
X543991Y-553031D02*
X553515Y-543508D01*
X553515Y-543508D02*
X572563Y-533984D01*
X572563Y-533984D02*
X610658Y-533984D01*
X610658Y-533984D02*
X629705Y-543508D01*
X629705Y-543508D02*
X639229Y-553031D01*
X639229Y-553031D02*
X648753Y-572079D01*
X648753Y-572079D02*
X648753Y-581603D01*
X648753Y-581603D02*
X639229Y-600650D01*
X639229Y-600650D02*
X629705Y-610174D01*
X629705Y-610174D02*
X610658Y-619698D01*
X610658Y-619698D02*
X572563Y-619698D01*
X572563Y-619698D02*
X553515Y-629222D01*
X553515Y-629222D02*
X543991Y-638746D01*
X543991Y-638746D02*
X534467Y-657793D01*
X534467Y-657793D02*
X534467Y-695889D01*
X534467Y-695889D02*
X543991Y-714936D01*
X543991Y-714936D02*
X553515Y-724460D01*
X553515Y-724460D02*
X572563Y-733984D01*
X572563Y-733984D02*
X610658Y-733984D01*
X610658Y-733984D02*
X629705Y-724460D01*
X629705Y-724460D02*
X639229Y-714936D01*
X639229Y-714936D02*
X648753Y-695889D01*
X648753Y-695889D02*
X648753Y-657793D01*
X648753Y-657793D02*
X639229Y-638746D01*
X639229Y-638746D02*
X629705Y-629222D01*
X629705Y-629222D02*
X610658Y-619698D01*
X772562Y-533984D02*
X791610Y-533984D01*
X791610Y-533984D02*
X810658Y-543508D01*
X810658Y-543508D02*
X820182Y-553031D01*
X820182Y-553031D02*
X829705Y-572079D01*
X829705Y-572079D02*
X839229Y-610174D01*
X839229Y-610174D02*
X839229Y-657793D01*
X839229Y-657793D02*
X829705Y-695889D01*
X829705Y-695889D02*
X820182Y-714936D01*
X820182Y-714936D02*
X810658Y-724460D01*
X810658Y-724460D02*
X791610Y-733984D01*
X791610Y-733984D02*
X772562Y-733984D01*
X772562Y-733984D02*
X753515Y-724460D01*
X753515Y-724460D02*
X743991Y-714936D01*
X743991Y-714936D02*
X734467Y-695889D01*
X734467Y-695889D02*
X724943Y-657793D01*
X724943Y-657793D02*
X724943Y-610174D01*
X724943Y-610174D02*
X734467Y-572079D01*
X734467Y-572079D02*
X743991Y-553031D01*
X743991Y-553031D02*
X753515Y-543508D01*
X753515Y-543508D02*
X772562Y-533984D01*
X963039Y-533984D02*
X982086Y-533984D01*
X982086Y-533984D02*
X1001134Y-543508D01*
X1001134Y-543508D02*
X1010658Y-553031D01*
X1010658Y-553031D02*
X1020182Y-572079D01*
X1020182Y-572079D02*
X1029705Y-610174D01*
X1029705Y-610174D02*
X1029705Y-657793D01*
X1029705Y-657793D02*
X1020182Y-695889D01*
X1020182Y-695889D02*
X1010658Y-714936D01*
X1010658Y-714936D02*
X1001134Y-724460D01*
X1001134Y-724460D02*
X982086Y-733984D01*
X982086Y-733984D02*
X963039Y-733984D01*
X963039Y-733984D02*
X943991Y-724460D01*
X943991Y-724460D02*
X934467Y-714936D01*
X934467Y-714936D02*
X924943Y-695889D01*
X924943Y-695889D02*
X915420Y-657793D01*
X915420Y-657793D02*
X915420Y-610174D01*
X915420Y-610174D02*
X924943Y-572079D01*
X924943Y-572079D02*
X934467Y-553031D01*
X934467Y-553031D02*
X943991Y-543508D01*
X943991Y-543508D02*
X963039Y-533984D01*
X1115420Y-733984D02*
X1115420Y-600650D01*
X1115420Y-619698D02*
X1124944Y-610174D01*
X1124944Y-610174D02*
X1143991Y-600650D01*
X1143991Y-600650D02*
X1172563Y-600650D01*
X1172563Y-600650D02*
X1191610Y-610174D01*
X1191610Y-610174D02*
X1201134Y-629222D01*
X1201134Y-629222D02*
X1201134Y-733984D01*
X1201134Y-629222D02*
X1210658Y-610174D01*
X1210658Y-610174D02*
X1229705Y-600650D01*
X1229705Y-600650D02*
X1258277Y-600650D01*
X1258277Y-600650D02*
X1277325Y-610174D01*
X1277325Y-610174D02*
X1286848Y-629222D01*
X1286848Y-629222D02*
X1286848Y-733984D01*
X1382086Y-733984D02*
X1382086Y-600650D01*
X1382086Y-619698D02*
X1391610Y-610174D01*
X1391610Y-610174D02*
X1410658Y-600650D01*
X1410658Y-600650D02*
X1439229Y-600650D01*
X1439229Y-600650D02*
X1458277Y-610174D01*
X1458277Y-610174D02*
X1467801Y-629222D01*
X1467801Y-629222D02*
X1467801Y-733984D01*
X1467801Y-629222D02*
X1477324Y-610174D01*
X1477324Y-610174D02*
X1496372Y-600650D01*
X1496372Y-600650D02*
X1524943Y-600650D01*
X1524943Y-600650D02*
X1543991Y-610174D01*
X1543991Y-610174D02*
X1553515Y-629222D01*
X1553515Y-629222D02*
X1553515Y-733984D01*
X1943991Y-524460D02*
X1772563Y-781603D01*
X2201134Y-533984D02*
X2220182Y-533984D01*
X2220182Y-533984D02*
X2239229Y-543508D01*
X2239229Y-543508D02*
X2248753Y-553031D01*
X2248753Y-553031D02*
X2258277Y-572079D01*
X2258277Y-572079D02*
X2267801Y-610174D01*
X2267801Y-610174D02*
X2267801Y-657793D01*
X2267801Y-657793D02*
X2258277Y-695889D01*
X2258277Y-695889D02*
X2248753Y-714936D01*
X2248753Y-714936D02*
X2239229Y-724460D01*
X2239229Y-724460D02*
X2220182Y-733984D01*
X2220182Y-733984D02*
X2201134Y-733984D01*
X2201134Y-733984D02*
X2182087Y-724460D01*
X2182087Y-724460D02*
X2172563Y-714936D01*
X2172563Y-714936D02*
X2163039Y-695889D01*
X2163039Y-695889D02*
X2153515Y-657793D01*
X2153515Y-657793D02*
X2153515Y-610174D01*
X2153515Y-610174D02*
X2163039Y-572079D01*
X2163039Y-572079D02*
X2172563Y-553031D01*
X2172563Y-553031D02*
X2182087Y-543508D01*
X2182087Y-543508D02*
X2201134Y-533984D01*
X2353515Y-714936D02*
X2363039Y-724460D01*
X2363039Y-724460D02*
X2353515Y-733984D01*
X2353515Y-733984D02*
X2343991Y-724460D01*
X2343991Y-724460D02*
X2353515Y-714936D01*
X2353515Y-714936D02*
X2353515Y-733984D01*
X2486848Y-533984D02*
X2505896Y-533984D01*
X2505896Y-533984D02*
X2524944Y-543508D01*
X2524944Y-543508D02*
X2534468Y-553031D01*
X2534468Y-553031D02*
X2543991Y-572079D01*
X2543991Y-572079D02*
X2553515Y-610174D01*
X2553515Y-610174D02*
X2553515Y-657793D01*
X2553515Y-657793D02*
X2543991Y-695889D01*
X2543991Y-695889D02*
X2534468Y-714936D01*
X2534468Y-714936D02*
X2524944Y-724460D01*
X2524944Y-724460D02*
X2505896Y-733984D01*
X2505896Y-733984D02*
X2486848Y-733984D01*
X2486848Y-733984D02*
X2467801Y-724460D01*
X2467801Y-724460D02*
X2458277Y-714936D01*
X2458277Y-714936D02*
X2448753Y-695889D01*
X2448753Y-695889D02*
X2439229Y-657793D01*
X2439229Y-657793D02*
X2439229Y-610174D01*
X2439229Y-610174D02*
X2448753Y-572079D01*
X2448753Y-572079D02*
X2458277Y-553031D01*
X2458277Y-553031D02*
X2467801Y-543508D01*
X2467801Y-543508D02*
X2486848Y-533984D01*
X2620182Y-533984D02*
X2743991Y-533984D01*
X2743991Y-533984D02*
X2677325Y-610174D01*
X2677325Y-610174D02*
X2705896Y-610174D01*
X2705896Y-610174D02*
X2724944Y-619698D01*
X2724944Y-619698D02*
X2734468Y-629222D01*
X2734468Y-629222D02*
X2743991Y-648270D01*
X2743991Y-648270D02*
X2743991Y-695889D01*
X2743991Y-695889D02*
X2734468Y-714936D01*
X2734468Y-714936D02*
X2724944Y-724460D01*
X2724944Y-724460D02*
X2705896Y-733984D01*
X2705896Y-733984D02*
X2648753Y-733984D01*
X2648753Y-733984D02*
X2629706Y-724460D01*
X2629706Y-724460D02*
X2620182Y-714936D01*
X2934467Y-733984D02*
X2820182Y-733984D01*
X2877325Y-733984D02*
X2877325Y-533984D01*
X2877325Y-533984D02*
X2858277Y-562555D01*
X2858277Y-562555D02*
X2839229Y-581603D01*
X2839229Y-581603D02*
X2820182Y-591127D01*
X3115420Y-533984D02*
X3020182Y-533984D01*
X3020182Y-533984D02*
X3010658Y-629222D01*
X3010658Y-629222D02*
X3020182Y-619698D01*
X3020182Y-619698D02*
X3039229Y-610174D01*
X3039229Y-610174D02*
X3086848Y-610174D01*
X3086848Y-610174D02*
X3105896Y-619698D01*
X3105896Y-619698D02*
X3115420Y-629222D01*
X3115420Y-629222D02*
X3124944Y-648270D01*
X3124944Y-648270D02*
X3124944Y-695889D01*
X3124944Y-695889D02*
X3115420Y-714936D01*
X3115420Y-714936D02*
X3105896Y-724460D01*
X3105896Y-724460D02*
X3086848Y-733984D01*
X3086848Y-733984D02*
X3039229Y-733984D01*
X3039229Y-733984D02*
X3020182Y-724460D01*
X3020182Y-724460D02*
X3010658Y-714936D01*
X3201134Y-533984D02*
X3201134Y-572079D01*
X3277325Y-533984D02*
X3277325Y-572079D01*
X3572563Y-810174D02*
X3563039Y-800650D01*
X3563039Y-800650D02*
X3543991Y-772079D01*
X3543991Y-772079D02*
X3534468Y-753031D01*
X3534468Y-753031D02*
X3524944Y-724460D01*
X3524944Y-724460D02*
X3515420Y-676841D01*
X3515420Y-676841D02*
X3515420Y-638746D01*
X3515420Y-638746D02*
X3524944Y-591127D01*
X3524944Y-591127D02*
X3534468Y-562555D01*
X3534468Y-562555D02*
X3543991Y-543508D01*
X3543991Y-543508D02*
X3563039Y-514936D01*
X3563039Y-514936D02*
X3572563Y-505412D01*
X3753515Y-733984D02*
X3639229Y-733984D01*
X3696372Y-733984D02*
X3696372Y-533984D01*
X3696372Y-533984D02*
X3677325Y-562555D01*
X3677325Y-562555D02*
X3658277Y-581603D01*
X3658277Y-581603D02*
X3639229Y-591127D01*
X3924944Y-533984D02*
X3886848Y-533984D01*
X3886848Y-533984D02*
X3867801Y-543508D01*
X3867801Y-543508D02*
X3858277Y-553031D01*
X3858277Y-553031D02*
X3839229Y-581603D01*
X3839229Y-581603D02*
X3829706Y-619698D01*
X3829706Y-619698D02*
X3829706Y-695889D01*
X3829706Y-695889D02*
X3839229Y-714936D01*
X3839229Y-714936D02*
X3848753Y-724460D01*
X3848753Y-724460D02*
X3867801Y-733984D01*
X3867801Y-733984D02*
X3905896Y-733984D01*
X3905896Y-733984D02*
X3924944Y-724460D01*
X3924944Y-724460D02*
X3934468Y-714936D01*
X3934468Y-714936D02*
X3943991Y-695889D01*
X3943991Y-695889D02*
X3943991Y-648270D01*
X3943991Y-648270D02*
X3934468Y-629222D01*
X3934468Y-629222D02*
X3924944Y-619698D01*
X3924944Y-619698D02*
X3905896Y-610174D01*
X3905896Y-610174D02*
X3867801Y-610174D01*
X3867801Y-610174D02*
X3848753Y-619698D01*
X3848753Y-619698D02*
X3839229Y-629222D01*
X3839229Y-629222D02*
X3829706Y-648270D01*
X4182087Y-733984D02*
X4182087Y-533984D01*
X4267801Y-733984D02*
X4267801Y-629222D01*
X4267801Y-629222D02*
X4258277Y-610174D01*
X4258277Y-610174D02*
X4239230Y-600650D01*
X4239230Y-600650D02*
X4210658Y-600650D01*
X4210658Y-600650D02*
X4191610Y-610174D01*
X4191610Y-610174D02*
X4182087Y-619698D01*
X4391611Y-733984D02*
X4372563Y-724460D01*
X4372563Y-724460D02*
X4363039Y-714936D01*
X4363039Y-714936D02*
X4353515Y-695889D01*
X4353515Y-695889D02*
X4353515Y-638746D01*
X4353515Y-638746D02*
X4363039Y-619698D01*
X4363039Y-619698D02*
X4372563Y-610174D01*
X4372563Y-610174D02*
X4391611Y-600650D01*
X4391611Y-600650D02*
X4420182Y-600650D01*
X4420182Y-600650D02*
X4439230Y-610174D01*
X4439230Y-610174D02*
X4448753Y-619698D01*
X4448753Y-619698D02*
X4458277Y-638746D01*
X4458277Y-638746D02*
X4458277Y-695889D01*
X4458277Y-695889D02*
X4448753Y-714936D01*
X4448753Y-714936D02*
X4439230Y-724460D01*
X4439230Y-724460D02*
X4420182Y-733984D01*
X4420182Y-733984D02*
X4391611Y-733984D01*
X4572563Y-733984D02*
X4553515Y-724460D01*
X4553515Y-724460D02*
X4543992Y-705412D01*
X4543992Y-705412D02*
X4543992Y-533984D01*
X4724944Y-724460D02*
X4705896Y-733984D01*
X4705896Y-733984D02*
X4667801Y-733984D01*
X4667801Y-733984D02*
X4648753Y-724460D01*
X4648753Y-724460D02*
X4639230Y-705412D01*
X4639230Y-705412D02*
X4639230Y-629222D01*
X4639230Y-629222D02*
X4648753Y-610174D01*
X4648753Y-610174D02*
X4667801Y-600650D01*
X4667801Y-600650D02*
X4705896Y-600650D01*
X4705896Y-600650D02*
X4724944Y-610174D01*
X4724944Y-610174D02*
X4734468Y-629222D01*
X4734468Y-629222D02*
X4734468Y-648270D01*
X4734468Y-648270D02*
X4639230Y-667317D01*
X4810658Y-724460D02*
X4829706Y-733984D01*
X4829706Y-733984D02*
X4867801Y-733984D01*
X4867801Y-733984D02*
X4886849Y-724460D01*
X4886849Y-724460D02*
X4896373Y-705412D01*
X4896373Y-705412D02*
X4896373Y-695889D01*
X4896373Y-695889D02*
X4886849Y-676841D01*
X4886849Y-676841D02*
X4867801Y-667317D01*
X4867801Y-667317D02*
X4839230Y-667317D01*
X4839230Y-667317D02*
X4820182Y-657793D01*
X4820182Y-657793D02*
X4810658Y-638746D01*
X4810658Y-638746D02*
X4810658Y-629222D01*
X4810658Y-629222D02*
X4820182Y-610174D01*
X4820182Y-610174D02*
X4839230Y-600650D01*
X4839230Y-600650D02*
X4867801Y-600650D01*
X4867801Y-600650D02*
X4886849Y-610174D01*
X4963039Y-810174D02*
X4972563Y-800650D01*
X4972563Y-800650D02*
X4991611Y-772079D01*
X4991611Y-772079D02*
X5001134Y-753031D01*
X5001134Y-753031D02*
X5010658Y-724460D01*
X5010658Y-724460D02*
X5020182Y-676841D01*
X5020182Y-676841D02*
X5020182Y-638746D01*
X5020182Y-638746D02*
X5010658Y-591127D01*
X5010658Y-591127D02*
X5001134Y-562555D01*
X5001134Y-562555D02*
X4991611Y-543508D01*
X4991611Y-543508D02*
X4972563Y-514936D01*
X4972563Y-514936D02*
X4963039Y-505412D01*
D12*
X-2500Y-906500D02*
G75*
G02*
X-88860Y-906500I-43180J0D01*
G01*
X-88860Y-906500D02*
G75*
G02*
X-2500Y-906500I43180J0D01*
G01*
D11*
X296372Y-797984D02*
X315420Y-797984D01*
X315420Y-797984D02*
X334467Y-807508D01*
X334467Y-807508D02*
X343991Y-817031D01*
X343991Y-817031D02*
X353515Y-836079D01*
X353515Y-836079D02*
X363039Y-874174D01*
X363039Y-874174D02*
X363039Y-921793D01*
X363039Y-921793D02*
X353515Y-959888D01*
X353515Y-959888D02*
X343991Y-978936D01*
X343991Y-978936D02*
X334467Y-988460D01*
X334467Y-988460D02*
X315420Y-997984D01*
X315420Y-997984D02*
X296372Y-997984D01*
X296372Y-997984D02*
X277324Y-988460D01*
X277324Y-988460D02*
X267801Y-978936D01*
X267801Y-978936D02*
X258277Y-959888D01*
X258277Y-959888D02*
X248753Y-921793D01*
X248753Y-921793D02*
X248753Y-874174D01*
X248753Y-874174D02*
X258277Y-836079D01*
X258277Y-836079D02*
X267801Y-817031D01*
X267801Y-817031D02*
X277324Y-807508D01*
X277324Y-807508D02*
X296372Y-797984D01*
X448753Y-978936D02*
X458277Y-988460D01*
X458277Y-988460D02*
X448753Y-997984D01*
X448753Y-997984D02*
X439229Y-988460D01*
X439229Y-988460D02*
X448753Y-978936D01*
X448753Y-978936D02*
X448753Y-997984D01*
X572563Y-883698D02*
X553515Y-874174D01*
X553515Y-874174D02*
X543991Y-864650D01*
X543991Y-864650D02*
X534467Y-845603D01*
X534467Y-845603D02*
X534467Y-836079D01*
X534467Y-836079D02*
X543991Y-817031D01*
X543991Y-817031D02*
X553515Y-807508D01*
X553515Y-807508D02*
X572563Y-797984D01*
X572563Y-797984D02*
X610658Y-797984D01*
X610658Y-797984D02*
X629705Y-807508D01*
X629705Y-807508D02*
X639229Y-817031D01*
X639229Y-817031D02*
X648753Y-836079D01*
X648753Y-836079D02*
X648753Y-845603D01*
X648753Y-845603D02*
X639229Y-864650D01*
X639229Y-864650D02*
X629705Y-874174D01*
X629705Y-874174D02*
X610658Y-883698D01*
X610658Y-883698D02*
X572563Y-883698D01*
X572563Y-883698D02*
X553515Y-893222D01*
X553515Y-893222D02*
X543991Y-902746D01*
X543991Y-902746D02*
X534467Y-921793D01*
X534467Y-921793D02*
X534467Y-959888D01*
X534467Y-959888D02*
X543991Y-978936D01*
X543991Y-978936D02*
X553515Y-988460D01*
X553515Y-988460D02*
X572563Y-997984D01*
X572563Y-997984D02*
X610658Y-997984D01*
X610658Y-997984D02*
X629705Y-988460D01*
X629705Y-988460D02*
X639229Y-978936D01*
X639229Y-978936D02*
X648753Y-959888D01*
X648753Y-959888D02*
X648753Y-921793D01*
X648753Y-921793D02*
X639229Y-902746D01*
X639229Y-902746D02*
X629705Y-893222D01*
X629705Y-893222D02*
X610658Y-883698D01*
X820182Y-797984D02*
X782086Y-797984D01*
X782086Y-797984D02*
X763039Y-807508D01*
X763039Y-807508D02*
X753515Y-817031D01*
X753515Y-817031D02*
X734467Y-845603D01*
X734467Y-845603D02*
X724943Y-883698D01*
X724943Y-883698D02*
X724943Y-959888D01*
X724943Y-959888D02*
X734467Y-978936D01*
X734467Y-978936D02*
X743991Y-988460D01*
X743991Y-988460D02*
X763039Y-997984D01*
X763039Y-997984D02*
X801134Y-997984D01*
X801134Y-997984D02*
X820182Y-988460D01*
X820182Y-988460D02*
X829705Y-978936D01*
X829705Y-978936D02*
X839229Y-959888D01*
X839229Y-959888D02*
X839229Y-912269D01*
X839229Y-912269D02*
X829705Y-893222D01*
X829705Y-893222D02*
X820182Y-883698D01*
X820182Y-883698D02*
X801134Y-874174D01*
X801134Y-874174D02*
X763039Y-874174D01*
X763039Y-874174D02*
X743991Y-883698D01*
X743991Y-883698D02*
X734467Y-893222D01*
X734467Y-893222D02*
X724943Y-912269D01*
X1010658Y-864650D02*
X1010658Y-997984D01*
X963039Y-788460D02*
X915420Y-931317D01*
X915420Y-931317D02*
X1039229Y-931317D01*
X1115420Y-997984D02*
X1115420Y-864650D01*
X1115420Y-883698D02*
X1124944Y-874174D01*
X1124944Y-874174D02*
X1143991Y-864650D01*
X1143991Y-864650D02*
X1172563Y-864650D01*
X1172563Y-864650D02*
X1191610Y-874174D01*
X1191610Y-874174D02*
X1201134Y-893222D01*
X1201134Y-893222D02*
X1201134Y-997984D01*
X1201134Y-893222D02*
X1210658Y-874174D01*
X1210658Y-874174D02*
X1229705Y-864650D01*
X1229705Y-864650D02*
X1258277Y-864650D01*
X1258277Y-864650D02*
X1277325Y-874174D01*
X1277325Y-874174D02*
X1286848Y-893222D01*
X1286848Y-893222D02*
X1286848Y-997984D01*
X1382086Y-997984D02*
X1382086Y-864650D01*
X1382086Y-883698D02*
X1391610Y-874174D01*
X1391610Y-874174D02*
X1410658Y-864650D01*
X1410658Y-864650D02*
X1439229Y-864650D01*
X1439229Y-864650D02*
X1458277Y-874174D01*
X1458277Y-874174D02*
X1467801Y-893222D01*
X1467801Y-893222D02*
X1467801Y-997984D01*
X1467801Y-893222D02*
X1477324Y-874174D01*
X1477324Y-874174D02*
X1496372Y-864650D01*
X1496372Y-864650D02*
X1524943Y-864650D01*
X1524943Y-864650D02*
X1543991Y-874174D01*
X1543991Y-874174D02*
X1553515Y-893222D01*
X1553515Y-893222D02*
X1553515Y-997984D01*
X1943991Y-788460D02*
X1772563Y-1045603D01*
X2201134Y-797984D02*
X2220182Y-797984D01*
X2220182Y-797984D02*
X2239229Y-807508D01*
X2239229Y-807508D02*
X2248753Y-817031D01*
X2248753Y-817031D02*
X2258277Y-836079D01*
X2258277Y-836079D02*
X2267801Y-874174D01*
X2267801Y-874174D02*
X2267801Y-921793D01*
X2267801Y-921793D02*
X2258277Y-959888D01*
X2258277Y-959888D02*
X2248753Y-978936D01*
X2248753Y-978936D02*
X2239229Y-988460D01*
X2239229Y-988460D02*
X2220182Y-997984D01*
X2220182Y-997984D02*
X2201134Y-997984D01*
X2201134Y-997984D02*
X2182087Y-988460D01*
X2182087Y-988460D02*
X2172563Y-978936D01*
X2172563Y-978936D02*
X2163039Y-959888D01*
X2163039Y-959888D02*
X2153515Y-921793D01*
X2153515Y-921793D02*
X2153515Y-874174D01*
X2153515Y-874174D02*
X2163039Y-836079D01*
X2163039Y-836079D02*
X2172563Y-817031D01*
X2172563Y-817031D02*
X2182087Y-807508D01*
X2182087Y-807508D02*
X2201134Y-797984D01*
X2353515Y-978936D02*
X2363039Y-988460D01*
X2363039Y-988460D02*
X2353515Y-997984D01*
X2353515Y-997984D02*
X2343991Y-988460D01*
X2343991Y-988460D02*
X2353515Y-978936D01*
X2353515Y-978936D02*
X2353515Y-997984D01*
X2486848Y-797984D02*
X2505896Y-797984D01*
X2505896Y-797984D02*
X2524944Y-807508D01*
X2524944Y-807508D02*
X2534468Y-817031D01*
X2534468Y-817031D02*
X2543991Y-836079D01*
X2543991Y-836079D02*
X2553515Y-874174D01*
X2553515Y-874174D02*
X2553515Y-921793D01*
X2553515Y-921793D02*
X2543991Y-959888D01*
X2543991Y-959888D02*
X2534468Y-978936D01*
X2534468Y-978936D02*
X2524944Y-988460D01*
X2524944Y-988460D02*
X2505896Y-997984D01*
X2505896Y-997984D02*
X2486848Y-997984D01*
X2486848Y-997984D02*
X2467801Y-988460D01*
X2467801Y-988460D02*
X2458277Y-978936D01*
X2458277Y-978936D02*
X2448753Y-959888D01*
X2448753Y-959888D02*
X2439229Y-921793D01*
X2439229Y-921793D02*
X2439229Y-874174D01*
X2439229Y-874174D02*
X2448753Y-836079D01*
X2448753Y-836079D02*
X2458277Y-817031D01*
X2458277Y-817031D02*
X2467801Y-807508D01*
X2467801Y-807508D02*
X2486848Y-797984D01*
X2620182Y-797984D02*
X2743991Y-797984D01*
X2743991Y-797984D02*
X2677325Y-874174D01*
X2677325Y-874174D02*
X2705896Y-874174D01*
X2705896Y-874174D02*
X2724944Y-883698D01*
X2724944Y-883698D02*
X2734468Y-893222D01*
X2734468Y-893222D02*
X2743991Y-912269D01*
X2743991Y-912269D02*
X2743991Y-959888D01*
X2743991Y-959888D02*
X2734468Y-978936D01*
X2734468Y-978936D02*
X2724944Y-988460D01*
X2724944Y-988460D02*
X2705896Y-997984D01*
X2705896Y-997984D02*
X2648753Y-997984D01*
X2648753Y-997984D02*
X2629706Y-988460D01*
X2629706Y-988460D02*
X2620182Y-978936D01*
X2915420Y-864650D02*
X2915420Y-997984D01*
X2867801Y-788460D02*
X2820182Y-931317D01*
X2820182Y-931317D02*
X2943991Y-931317D01*
X3058277Y-797984D02*
X3077325Y-797984D01*
X3077325Y-797984D02*
X3096372Y-807508D01*
X3096372Y-807508D02*
X3105896Y-817031D01*
X3105896Y-817031D02*
X3115420Y-836079D01*
X3115420Y-836079D02*
X3124944Y-874174D01*
X3124944Y-874174D02*
X3124944Y-921793D01*
X3124944Y-921793D02*
X3115420Y-959888D01*
X3115420Y-959888D02*
X3105896Y-978936D01*
X3105896Y-978936D02*
X3096372Y-988460D01*
X3096372Y-988460D02*
X3077325Y-997984D01*
X3077325Y-997984D02*
X3058277Y-997984D01*
X3058277Y-997984D02*
X3039229Y-988460D01*
X3039229Y-988460D02*
X3029706Y-978936D01*
X3029706Y-978936D02*
X3020182Y-959888D01*
X3020182Y-959888D02*
X3010658Y-921793D01*
X3010658Y-921793D02*
X3010658Y-874174D01*
X3010658Y-874174D02*
X3020182Y-836079D01*
X3020182Y-836079D02*
X3029706Y-817031D01*
X3029706Y-817031D02*
X3039229Y-807508D01*
X3039229Y-807508D02*
X3058277Y-797984D01*
X3201134Y-797984D02*
X3201134Y-836079D01*
X3277325Y-797984D02*
X3277325Y-836079D01*
X3572563Y-1074174D02*
X3563039Y-1064650D01*
X3563039Y-1064650D02*
X3543991Y-1036079D01*
X3543991Y-1036079D02*
X3534468Y-1017031D01*
X3534468Y-1017031D02*
X3524944Y-988460D01*
X3524944Y-988460D02*
X3515420Y-940841D01*
X3515420Y-940841D02*
X3515420Y-902746D01*
X3515420Y-902746D02*
X3524944Y-855127D01*
X3524944Y-855127D02*
X3534468Y-826555D01*
X3534468Y-826555D02*
X3543991Y-807508D01*
X3543991Y-807508D02*
X3563039Y-778936D01*
X3563039Y-778936D02*
X3572563Y-769412D01*
X3677325Y-883698D02*
X3658277Y-874174D01*
X3658277Y-874174D02*
X3648753Y-864650D01*
X3648753Y-864650D02*
X3639229Y-845603D01*
X3639229Y-845603D02*
X3639229Y-836079D01*
X3639229Y-836079D02*
X3648753Y-817031D01*
X3648753Y-817031D02*
X3658277Y-807508D01*
X3658277Y-807508D02*
X3677325Y-797984D01*
X3677325Y-797984D02*
X3715420Y-797984D01*
X3715420Y-797984D02*
X3734468Y-807508D01*
X3734468Y-807508D02*
X3743991Y-817031D01*
X3743991Y-817031D02*
X3753515Y-836079D01*
X3753515Y-836079D02*
X3753515Y-845603D01*
X3753515Y-845603D02*
X3743991Y-864650D01*
X3743991Y-864650D02*
X3734468Y-874174D01*
X3734468Y-874174D02*
X3715420Y-883698D01*
X3715420Y-883698D02*
X3677325Y-883698D01*
X3677325Y-883698D02*
X3658277Y-893222D01*
X3658277Y-893222D02*
X3648753Y-902746D01*
X3648753Y-902746D02*
X3639229Y-921793D01*
X3639229Y-921793D02*
X3639229Y-959888D01*
X3639229Y-959888D02*
X3648753Y-978936D01*
X3648753Y-978936D02*
X3658277Y-988460D01*
X3658277Y-988460D02*
X3677325Y-997984D01*
X3677325Y-997984D02*
X3715420Y-997984D01*
X3715420Y-997984D02*
X3734468Y-988460D01*
X3734468Y-988460D02*
X3743991Y-978936D01*
X3743991Y-978936D02*
X3753515Y-959888D01*
X3753515Y-959888D02*
X3753515Y-921793D01*
X3753515Y-921793D02*
X3743991Y-902746D01*
X3743991Y-902746D02*
X3734468Y-893222D01*
X3734468Y-893222D02*
X3715420Y-883698D01*
X3991610Y-997984D02*
X3991610Y-797984D01*
X4077325Y-997984D02*
X4077325Y-893222D01*
X4077325Y-893222D02*
X4067801Y-874174D01*
X4067801Y-874174D02*
X4048753Y-864650D01*
X4048753Y-864650D02*
X4020182Y-864650D01*
X4020182Y-864650D02*
X4001134Y-874174D01*
X4001134Y-874174D02*
X3991610Y-883698D01*
X4201134Y-997984D02*
X4182087Y-988460D01*
X4182087Y-988460D02*
X4172563Y-978936D01*
X4172563Y-978936D02*
X4163039Y-959888D01*
X4163039Y-959888D02*
X4163039Y-902746D01*
X4163039Y-902746D02*
X4172563Y-883698D01*
X4172563Y-883698D02*
X4182087Y-874174D01*
X4182087Y-874174D02*
X4201134Y-864650D01*
X4201134Y-864650D02*
X4229706Y-864650D01*
X4229706Y-864650D02*
X4248753Y-874174D01*
X4248753Y-874174D02*
X4258277Y-883698D01*
X4258277Y-883698D02*
X4267801Y-902746D01*
X4267801Y-902746D02*
X4267801Y-959888D01*
X4267801Y-959888D02*
X4258277Y-978936D01*
X4258277Y-978936D02*
X4248753Y-988460D01*
X4248753Y-988460D02*
X4229706Y-997984D01*
X4229706Y-997984D02*
X4201134Y-997984D01*
X4382087Y-997984D02*
X4363039Y-988460D01*
X4363039Y-988460D02*
X4353515Y-969412D01*
X4353515Y-969412D02*
X4353515Y-797984D01*
X4534468Y-988460D02*
X4515420Y-997984D01*
X4515420Y-997984D02*
X4477325Y-997984D01*
X4477325Y-997984D02*
X4458277Y-988460D01*
X4458277Y-988460D02*
X4448753Y-969412D01*
X4448753Y-969412D02*
X4448753Y-893222D01*
X4448753Y-893222D02*
X4458277Y-874174D01*
X4458277Y-874174D02*
X4477325Y-864650D01*
X4477325Y-864650D02*
X4515420Y-864650D01*
X4515420Y-864650D02*
X4534468Y-874174D01*
X4534468Y-874174D02*
X4543992Y-893222D01*
X4543992Y-893222D02*
X4543992Y-912269D01*
X4543992Y-912269D02*
X4448753Y-931317D01*
X4620182Y-988460D02*
X4639230Y-997984D01*
X4639230Y-997984D02*
X4677325Y-997984D01*
X4677325Y-997984D02*
X4696373Y-988460D01*
X4696373Y-988460D02*
X4705896Y-969412D01*
X4705896Y-969412D02*
X4705896Y-959888D01*
X4705896Y-959888D02*
X4696373Y-940841D01*
X4696373Y-940841D02*
X4677325Y-931317D01*
X4677325Y-931317D02*
X4648753Y-931317D01*
X4648753Y-931317D02*
X4629706Y-921793D01*
X4629706Y-921793D02*
X4620182Y-902746D01*
X4620182Y-902746D02*
X4620182Y-893222D01*
X4620182Y-893222D02*
X4629706Y-874174D01*
X4629706Y-874174D02*
X4648753Y-864650D01*
X4648753Y-864650D02*
X4677325Y-864650D01*
X4677325Y-864650D02*
X4696373Y-874174D01*
X4772563Y-1074174D02*
X4782087Y-1064650D01*
X4782087Y-1064650D02*
X4801134Y-1036079D01*
X4801134Y-1036079D02*
X4810658Y-1017031D01*
X4810658Y-1017031D02*
X4820182Y-988460D01*
X4820182Y-988460D02*
X4829706Y-940841D01*
X4829706Y-940841D02*
X4829706Y-902746D01*
X4829706Y-902746D02*
X4820182Y-855127D01*
X4820182Y-855127D02*
X4810658Y-826555D01*
X4810658Y-826555D02*
X4801134Y-807508D01*
X4801134Y-807508D02*
X4782087Y-778936D01*
X4782087Y-778936D02*
X4772563Y-769412D01*
D12*
X-52500Y-1120500D02*
X-52500Y-1220500D01*
X-102500Y-1170500D02*
X-2500Y-1170500D01*
D11*
X363039Y-1261984D02*
X248753Y-1261984D01*
X305896Y-1261984D02*
X305896Y-1061984D01*
X305896Y-1061984D02*
X286848Y-1090555D01*
X286848Y-1090555D02*
X267801Y-1109603D01*
X267801Y-1109603D02*
X248753Y-1119127D01*
X448753Y-1242936D02*
X458277Y-1252460D01*
X458277Y-1252460D02*
X448753Y-1261984D01*
X448753Y-1261984D02*
X439229Y-1252460D01*
X439229Y-1252460D02*
X448753Y-1242936D01*
X448753Y-1242936D02*
X448753Y-1261984D01*
X582086Y-1061984D02*
X601134Y-1061984D01*
X601134Y-1061984D02*
X620182Y-1071508D01*
X620182Y-1071508D02*
X629705Y-1081031D01*
X629705Y-1081031D02*
X639229Y-1100079D01*
X639229Y-1100079D02*
X648753Y-1138174D01*
X648753Y-1138174D02*
X648753Y-1185793D01*
X648753Y-1185793D02*
X639229Y-1223889D01*
X639229Y-1223889D02*
X629705Y-1242936D01*
X629705Y-1242936D02*
X620182Y-1252460D01*
X620182Y-1252460D02*
X601134Y-1261984D01*
X601134Y-1261984D02*
X582086Y-1261984D01*
X582086Y-1261984D02*
X563039Y-1252460D01*
X563039Y-1252460D02*
X553515Y-1242936D01*
X553515Y-1242936D02*
X543991Y-1223889D01*
X543991Y-1223889D02*
X534467Y-1185793D01*
X534467Y-1185793D02*
X534467Y-1138174D01*
X534467Y-1138174D02*
X543991Y-1100079D01*
X543991Y-1100079D02*
X553515Y-1081031D01*
X553515Y-1081031D02*
X563039Y-1071508D01*
X563039Y-1071508D02*
X582086Y-1061984D01*
X772562Y-1061984D02*
X791610Y-1061984D01*
X791610Y-1061984D02*
X810658Y-1071508D01*
X810658Y-1071508D02*
X820182Y-1081031D01*
X820182Y-1081031D02*
X829705Y-1100079D01*
X829705Y-1100079D02*
X839229Y-1138174D01*
X839229Y-1138174D02*
X839229Y-1185793D01*
X839229Y-1185793D02*
X829705Y-1223889D01*
X829705Y-1223889D02*
X820182Y-1242936D01*
X820182Y-1242936D02*
X810658Y-1252460D01*
X810658Y-1252460D02*
X791610Y-1261984D01*
X791610Y-1261984D02*
X772562Y-1261984D01*
X772562Y-1261984D02*
X753515Y-1252460D01*
X753515Y-1252460D02*
X743991Y-1242936D01*
X743991Y-1242936D02*
X734467Y-1223889D01*
X734467Y-1223889D02*
X724943Y-1185793D01*
X724943Y-1185793D02*
X724943Y-1138174D01*
X724943Y-1138174D02*
X734467Y-1100079D01*
X734467Y-1100079D02*
X743991Y-1081031D01*
X743991Y-1081031D02*
X753515Y-1071508D01*
X753515Y-1071508D02*
X772562Y-1061984D01*
X963039Y-1061984D02*
X982086Y-1061984D01*
X982086Y-1061984D02*
X1001134Y-1071508D01*
X1001134Y-1071508D02*
X1010658Y-1081031D01*
X1010658Y-1081031D02*
X1020182Y-1100079D01*
X1020182Y-1100079D02*
X1029705Y-1138174D01*
X1029705Y-1138174D02*
X1029705Y-1185793D01*
X1029705Y-1185793D02*
X1020182Y-1223889D01*
X1020182Y-1223889D02*
X1010658Y-1242936D01*
X1010658Y-1242936D02*
X1001134Y-1252460D01*
X1001134Y-1252460D02*
X982086Y-1261984D01*
X982086Y-1261984D02*
X963039Y-1261984D01*
X963039Y-1261984D02*
X943991Y-1252460D01*
X943991Y-1252460D02*
X934467Y-1242936D01*
X934467Y-1242936D02*
X924943Y-1223889D01*
X924943Y-1223889D02*
X915420Y-1185793D01*
X915420Y-1185793D02*
X915420Y-1138174D01*
X915420Y-1138174D02*
X924943Y-1100079D01*
X924943Y-1100079D02*
X934467Y-1081031D01*
X934467Y-1081031D02*
X943991Y-1071508D01*
X943991Y-1071508D02*
X963039Y-1061984D01*
X1115420Y-1261984D02*
X1115420Y-1128650D01*
X1115420Y-1147698D02*
X1124944Y-1138174D01*
X1124944Y-1138174D02*
X1143991Y-1128650D01*
X1143991Y-1128650D02*
X1172563Y-1128650D01*
X1172563Y-1128650D02*
X1191610Y-1138174D01*
X1191610Y-1138174D02*
X1201134Y-1157222D01*
X1201134Y-1157222D02*
X1201134Y-1261984D01*
X1201134Y-1157222D02*
X1210658Y-1138174D01*
X1210658Y-1138174D02*
X1229705Y-1128650D01*
X1229705Y-1128650D02*
X1258277Y-1128650D01*
X1258277Y-1128650D02*
X1277325Y-1138174D01*
X1277325Y-1138174D02*
X1286848Y-1157222D01*
X1286848Y-1157222D02*
X1286848Y-1261984D01*
X1382086Y-1261984D02*
X1382086Y-1128650D01*
X1382086Y-1147698D02*
X1391610Y-1138174D01*
X1391610Y-1138174D02*
X1410658Y-1128650D01*
X1410658Y-1128650D02*
X1439229Y-1128650D01*
X1439229Y-1128650D02*
X1458277Y-1138174D01*
X1458277Y-1138174D02*
X1467801Y-1157222D01*
X1467801Y-1157222D02*
X1467801Y-1261984D01*
X1467801Y-1157222D02*
X1477324Y-1138174D01*
X1477324Y-1138174D02*
X1496372Y-1128650D01*
X1496372Y-1128650D02*
X1524943Y-1128650D01*
X1524943Y-1128650D02*
X1543991Y-1138174D01*
X1543991Y-1138174D02*
X1553515Y-1157222D01*
X1553515Y-1157222D02*
X1553515Y-1261984D01*
X1943991Y-1052460D02*
X1772563Y-1309603D01*
X2201134Y-1061984D02*
X2220182Y-1061984D01*
X2220182Y-1061984D02*
X2239229Y-1071508D01*
X2239229Y-1071508D02*
X2248753Y-1081031D01*
X2248753Y-1081031D02*
X2258277Y-1100079D01*
X2258277Y-1100079D02*
X2267801Y-1138174D01*
X2267801Y-1138174D02*
X2267801Y-1185793D01*
X2267801Y-1185793D02*
X2258277Y-1223889D01*
X2258277Y-1223889D02*
X2248753Y-1242936D01*
X2248753Y-1242936D02*
X2239229Y-1252460D01*
X2239229Y-1252460D02*
X2220182Y-1261984D01*
X2220182Y-1261984D02*
X2201134Y-1261984D01*
X2201134Y-1261984D02*
X2182087Y-1252460D01*
X2182087Y-1252460D02*
X2172563Y-1242936D01*
X2172563Y-1242936D02*
X2163039Y-1223889D01*
X2163039Y-1223889D02*
X2153515Y-1185793D01*
X2153515Y-1185793D02*
X2153515Y-1138174D01*
X2153515Y-1138174D02*
X2163039Y-1100079D01*
X2163039Y-1100079D02*
X2172563Y-1081031D01*
X2172563Y-1081031D02*
X2182087Y-1071508D01*
X2182087Y-1071508D02*
X2201134Y-1061984D01*
X2353515Y-1242936D02*
X2363039Y-1252460D01*
X2363039Y-1252460D02*
X2353515Y-1261984D01*
X2353515Y-1261984D02*
X2343991Y-1252460D01*
X2343991Y-1252460D02*
X2353515Y-1242936D01*
X2353515Y-1242936D02*
X2353515Y-1261984D01*
X2486848Y-1061984D02*
X2505896Y-1061984D01*
X2505896Y-1061984D02*
X2524944Y-1071508D01*
X2524944Y-1071508D02*
X2534468Y-1081031D01*
X2534468Y-1081031D02*
X2543991Y-1100079D01*
X2543991Y-1100079D02*
X2553515Y-1138174D01*
X2553515Y-1138174D02*
X2553515Y-1185793D01*
X2553515Y-1185793D02*
X2543991Y-1223889D01*
X2543991Y-1223889D02*
X2534468Y-1242936D01*
X2534468Y-1242936D02*
X2524944Y-1252460D01*
X2524944Y-1252460D02*
X2505896Y-1261984D01*
X2505896Y-1261984D02*
X2486848Y-1261984D01*
X2486848Y-1261984D02*
X2467801Y-1252460D01*
X2467801Y-1252460D02*
X2458277Y-1242936D01*
X2458277Y-1242936D02*
X2448753Y-1223889D01*
X2448753Y-1223889D02*
X2439229Y-1185793D01*
X2439229Y-1185793D02*
X2439229Y-1138174D01*
X2439229Y-1138174D02*
X2448753Y-1100079D01*
X2448753Y-1100079D02*
X2458277Y-1081031D01*
X2458277Y-1081031D02*
X2467801Y-1071508D01*
X2467801Y-1071508D02*
X2486848Y-1061984D01*
X2620182Y-1061984D02*
X2743991Y-1061984D01*
X2743991Y-1061984D02*
X2677325Y-1138174D01*
X2677325Y-1138174D02*
X2705896Y-1138174D01*
X2705896Y-1138174D02*
X2724944Y-1147698D01*
X2724944Y-1147698D02*
X2734468Y-1157222D01*
X2734468Y-1157222D02*
X2743991Y-1176270D01*
X2743991Y-1176270D02*
X2743991Y-1223889D01*
X2743991Y-1223889D02*
X2734468Y-1242936D01*
X2734468Y-1242936D02*
X2724944Y-1252460D01*
X2724944Y-1252460D02*
X2705896Y-1261984D01*
X2705896Y-1261984D02*
X2648753Y-1261984D01*
X2648753Y-1261984D02*
X2629706Y-1252460D01*
X2629706Y-1252460D02*
X2620182Y-1242936D01*
X2839229Y-1261984D02*
X2877325Y-1261984D01*
X2877325Y-1261984D02*
X2896372Y-1252460D01*
X2896372Y-1252460D02*
X2905896Y-1242936D01*
X2905896Y-1242936D02*
X2924944Y-1214365D01*
X2924944Y-1214365D02*
X2934467Y-1176270D01*
X2934467Y-1176270D02*
X2934467Y-1100079D01*
X2934467Y-1100079D02*
X2924944Y-1081031D01*
X2924944Y-1081031D02*
X2915420Y-1071508D01*
X2915420Y-1071508D02*
X2896372Y-1061984D01*
X2896372Y-1061984D02*
X2858277Y-1061984D01*
X2858277Y-1061984D02*
X2839229Y-1071508D01*
X2839229Y-1071508D02*
X2829706Y-1081031D01*
X2829706Y-1081031D02*
X2820182Y-1100079D01*
X2820182Y-1100079D02*
X2820182Y-1147698D01*
X2820182Y-1147698D02*
X2829706Y-1166746D01*
X2829706Y-1166746D02*
X2839229Y-1176270D01*
X2839229Y-1176270D02*
X2858277Y-1185793D01*
X2858277Y-1185793D02*
X2896372Y-1185793D01*
X2896372Y-1185793D02*
X2915420Y-1176270D01*
X2915420Y-1176270D02*
X2924944Y-1166746D01*
X2924944Y-1166746D02*
X2934467Y-1147698D01*
X3105896Y-1128650D02*
X3105896Y-1261984D01*
X3058277Y-1052460D02*
X3010658Y-1195317D01*
X3010658Y-1195317D02*
X3134467Y-1195317D01*
X3201134Y-1061984D02*
X3201134Y-1100079D01*
X3277325Y-1061984D02*
X3277325Y-1100079D01*
X3572563Y-1338174D02*
X3563039Y-1328650D01*
X3563039Y-1328650D02*
X3543991Y-1300079D01*
X3543991Y-1300079D02*
X3534468Y-1281031D01*
X3534468Y-1281031D02*
X3524944Y-1252460D01*
X3524944Y-1252460D02*
X3515420Y-1204841D01*
X3515420Y-1204841D02*
X3515420Y-1166746D01*
X3515420Y-1166746D02*
X3524944Y-1119127D01*
X3524944Y-1119127D02*
X3534468Y-1090555D01*
X3534468Y-1090555D02*
X3543991Y-1071508D01*
X3543991Y-1071508D02*
X3563039Y-1042936D01*
X3563039Y-1042936D02*
X3572563Y-1033412D01*
X3677325Y-1147698D02*
X3658277Y-1138174D01*
X3658277Y-1138174D02*
X3648753Y-1128650D01*
X3648753Y-1128650D02*
X3639229Y-1109603D01*
X3639229Y-1109603D02*
X3639229Y-1100079D01*
X3639229Y-1100079D02*
X3648753Y-1081031D01*
X3648753Y-1081031D02*
X3658277Y-1071508D01*
X3658277Y-1071508D02*
X3677325Y-1061984D01*
X3677325Y-1061984D02*
X3715420Y-1061984D01*
X3715420Y-1061984D02*
X3734468Y-1071508D01*
X3734468Y-1071508D02*
X3743991Y-1081031D01*
X3743991Y-1081031D02*
X3753515Y-1100079D01*
X3753515Y-1100079D02*
X3753515Y-1109603D01*
X3753515Y-1109603D02*
X3743991Y-1128650D01*
X3743991Y-1128650D02*
X3734468Y-1138174D01*
X3734468Y-1138174D02*
X3715420Y-1147698D01*
X3715420Y-1147698D02*
X3677325Y-1147698D01*
X3677325Y-1147698D02*
X3658277Y-1157222D01*
X3658277Y-1157222D02*
X3648753Y-1166746D01*
X3648753Y-1166746D02*
X3639229Y-1185793D01*
X3639229Y-1185793D02*
X3639229Y-1223889D01*
X3639229Y-1223889D02*
X3648753Y-1242936D01*
X3648753Y-1242936D02*
X3658277Y-1252460D01*
X3658277Y-1252460D02*
X3677325Y-1261984D01*
X3677325Y-1261984D02*
X3715420Y-1261984D01*
X3715420Y-1261984D02*
X3734468Y-1252460D01*
X3734468Y-1252460D02*
X3743991Y-1242936D01*
X3743991Y-1242936D02*
X3753515Y-1223889D01*
X3753515Y-1223889D02*
X3753515Y-1185793D01*
X3753515Y-1185793D02*
X3743991Y-1166746D01*
X3743991Y-1166746D02*
X3734468Y-1157222D01*
X3734468Y-1157222D02*
X3715420Y-1147698D01*
X3991610Y-1261984D02*
X3991610Y-1061984D01*
X4077325Y-1261984D02*
X4077325Y-1157222D01*
X4077325Y-1157222D02*
X4067801Y-1138174D01*
X4067801Y-1138174D02*
X4048753Y-1128650D01*
X4048753Y-1128650D02*
X4020182Y-1128650D01*
X4020182Y-1128650D02*
X4001134Y-1138174D01*
X4001134Y-1138174D02*
X3991610Y-1147698D01*
X4201134Y-1261984D02*
X4182087Y-1252460D01*
X4182087Y-1252460D02*
X4172563Y-1242936D01*
X4172563Y-1242936D02*
X4163039Y-1223889D01*
X4163039Y-1223889D02*
X4163039Y-1166746D01*
X4163039Y-1166746D02*
X4172563Y-1147698D01*
X4172563Y-1147698D02*
X4182087Y-1138174D01*
X4182087Y-1138174D02*
X4201134Y-1128650D01*
X4201134Y-1128650D02*
X4229706Y-1128650D01*
X4229706Y-1128650D02*
X4248753Y-1138174D01*
X4248753Y-1138174D02*
X4258277Y-1147698D01*
X4258277Y-1147698D02*
X4267801Y-1166746D01*
X4267801Y-1166746D02*
X4267801Y-1223889D01*
X4267801Y-1223889D02*
X4258277Y-1242936D01*
X4258277Y-1242936D02*
X4248753Y-1252460D01*
X4248753Y-1252460D02*
X4229706Y-1261984D01*
X4229706Y-1261984D02*
X4201134Y-1261984D01*
X4382087Y-1261984D02*
X4363039Y-1252460D01*
X4363039Y-1252460D02*
X4353515Y-1233412D01*
X4353515Y-1233412D02*
X4353515Y-1061984D01*
X4534468Y-1252460D02*
X4515420Y-1261984D01*
X4515420Y-1261984D02*
X4477325Y-1261984D01*
X4477325Y-1261984D02*
X4458277Y-1252460D01*
X4458277Y-1252460D02*
X4448753Y-1233412D01*
X4448753Y-1233412D02*
X4448753Y-1157222D01*
X4448753Y-1157222D02*
X4458277Y-1138174D01*
X4458277Y-1138174D02*
X4477325Y-1128650D01*
X4477325Y-1128650D02*
X4515420Y-1128650D01*
X4515420Y-1128650D02*
X4534468Y-1138174D01*
X4534468Y-1138174D02*
X4543992Y-1157222D01*
X4543992Y-1157222D02*
X4543992Y-1176270D01*
X4543992Y-1176270D02*
X4448753Y-1195317D01*
X4620182Y-1252460D02*
X4639230Y-1261984D01*
X4639230Y-1261984D02*
X4677325Y-1261984D01*
X4677325Y-1261984D02*
X4696373Y-1252460D01*
X4696373Y-1252460D02*
X4705896Y-1233412D01*
X4705896Y-1233412D02*
X4705896Y-1223889D01*
X4705896Y-1223889D02*
X4696373Y-1204841D01*
X4696373Y-1204841D02*
X4677325Y-1195317D01*
X4677325Y-1195317D02*
X4648753Y-1195317D01*
X4648753Y-1195317D02*
X4629706Y-1185793D01*
X4629706Y-1185793D02*
X4620182Y-1166746D01*
X4620182Y-1166746D02*
X4620182Y-1157222D01*
X4620182Y-1157222D02*
X4629706Y-1138174D01*
X4629706Y-1138174D02*
X4648753Y-1128650D01*
X4648753Y-1128650D02*
X4677325Y-1128650D01*
X4677325Y-1128650D02*
X4696373Y-1138174D01*
X4943992Y-1185793D02*
X5096373Y-1185793D01*
X5020182Y-1261984D02*
X5020182Y-1109603D01*
X5324944Y-1061984D02*
X5448754Y-1061984D01*
X5448754Y-1061984D02*
X5382087Y-1138174D01*
X5382087Y-1138174D02*
X5410658Y-1138174D01*
X5410658Y-1138174D02*
X5429706Y-1147698D01*
X5429706Y-1147698D02*
X5439230Y-1157222D01*
X5439230Y-1157222D02*
X5448754Y-1176270D01*
X5448754Y-1176270D02*
X5448754Y-1223889D01*
X5448754Y-1223889D02*
X5439230Y-1242936D01*
X5439230Y-1242936D02*
X5429706Y-1252460D01*
X5429706Y-1252460D02*
X5410658Y-1261984D01*
X5410658Y-1261984D02*
X5353515Y-1261984D01*
X5353515Y-1261984D02*
X5334468Y-1252460D01*
X5334468Y-1252460D02*
X5324944Y-1242936D01*
X5677325Y-1252460D02*
X5696373Y-1261984D01*
X5696373Y-1261984D02*
X5734468Y-1261984D01*
X5734468Y-1261984D02*
X5753515Y-1252460D01*
X5753515Y-1252460D02*
X5763039Y-1233412D01*
X5763039Y-1233412D02*
X5763039Y-1223889D01*
X5763039Y-1223889D02*
X5753515Y-1204841D01*
X5753515Y-1204841D02*
X5734468Y-1195317D01*
X5734468Y-1195317D02*
X5705896Y-1195317D01*
X5705896Y-1195317D02*
X5686849Y-1185793D01*
X5686849Y-1185793D02*
X5677325Y-1166746D01*
X5677325Y-1166746D02*
X5677325Y-1157222D01*
X5677325Y-1157222D02*
X5686849Y-1138174D01*
X5686849Y-1138174D02*
X5705896Y-1128650D01*
X5705896Y-1128650D02*
X5734468Y-1128650D01*
X5734468Y-1128650D02*
X5753515Y-1138174D01*
X5877325Y-1261984D02*
X5858277Y-1252460D01*
X5858277Y-1252460D02*
X5848754Y-1233412D01*
X5848754Y-1233412D02*
X5848754Y-1061984D01*
X5982087Y-1261984D02*
X5963039Y-1252460D01*
X5963039Y-1252460D02*
X5953515Y-1242936D01*
X5953515Y-1242936D02*
X5943992Y-1223889D01*
X5943992Y-1223889D02*
X5943992Y-1166746D01*
X5943992Y-1166746D02*
X5953515Y-1147698D01*
X5953515Y-1147698D02*
X5963039Y-1138174D01*
X5963039Y-1138174D02*
X5982087Y-1128650D01*
X5982087Y-1128650D02*
X6010658Y-1128650D01*
X6010658Y-1128650D02*
X6029706Y-1138174D01*
X6029706Y-1138174D02*
X6039230Y-1147698D01*
X6039230Y-1147698D02*
X6048754Y-1166746D01*
X6048754Y-1166746D02*
X6048754Y-1223889D01*
X6048754Y-1223889D02*
X6039230Y-1242936D01*
X6039230Y-1242936D02*
X6029706Y-1252460D01*
X6029706Y-1252460D02*
X6010658Y-1261984D01*
X6010658Y-1261984D02*
X5982087Y-1261984D01*
X6105896Y-1128650D02*
X6182087Y-1128650D01*
X6134468Y-1061984D02*
X6134468Y-1233412D01*
X6134468Y-1233412D02*
X6143992Y-1252460D01*
X6143992Y-1252460D02*
X6163039Y-1261984D01*
X6163039Y-1261984D02*
X6182087Y-1261984D01*
X6239230Y-1252460D02*
X6258277Y-1261984D01*
X6258277Y-1261984D02*
X6296373Y-1261984D01*
X6296373Y-1261984D02*
X6315420Y-1252460D01*
X6315420Y-1252460D02*
X6324944Y-1233412D01*
X6324944Y-1233412D02*
X6324944Y-1223889D01*
X6324944Y-1223889D02*
X6315420Y-1204841D01*
X6315420Y-1204841D02*
X6296373Y-1195317D01*
X6296373Y-1195317D02*
X6267801Y-1195317D01*
X6267801Y-1195317D02*
X6248754Y-1185793D01*
X6248754Y-1185793D02*
X6239230Y-1166746D01*
X6239230Y-1166746D02*
X6239230Y-1157222D01*
X6239230Y-1157222D02*
X6248754Y-1138174D01*
X6248754Y-1138174D02*
X6267801Y-1128650D01*
X6267801Y-1128650D02*
X6296373Y-1128650D01*
X6296373Y-1128650D02*
X6315420Y-1138174D01*
X6391611Y-1338174D02*
X6401135Y-1328650D01*
X6401135Y-1328650D02*
X6420182Y-1300079D01*
X6420182Y-1300079D02*
X6429706Y-1281031D01*
X6429706Y-1281031D02*
X6439230Y-1252460D01*
X6439230Y-1252460D02*
X6448754Y-1204841D01*
X6448754Y-1204841D02*
X6448754Y-1166746D01*
X6448754Y-1166746D02*
X6439230Y-1119127D01*
X6439230Y-1119127D02*
X6429706Y-1090555D01*
X6429706Y-1090555D02*
X6420182Y-1071508D01*
X6420182Y-1071508D02*
X6401135Y-1042936D01*
X6401135Y-1042936D02*
X6391611Y-1033412D01*
D13*
X-23002Y-1483998D02*
X-23002Y-1385002D01*
X-121998Y-1385002D01*
X-121998Y-1483998D01*
X-23002Y-1483998D01*
D11*
X363039Y-1525984D02*
X248753Y-1525984D01*
X305896Y-1525984D02*
X305896Y-1325984D01*
X305896Y-1325984D02*
X286848Y-1354555D01*
X286848Y-1354555D02*
X267801Y-1373603D01*
X267801Y-1373603D02*
X248753Y-1383127D01*
X448753Y-1506936D02*
X458277Y-1516460D01*
X458277Y-1516460D02*
X448753Y-1525984D01*
X448753Y-1525984D02*
X439229Y-1516460D01*
X439229Y-1516460D02*
X448753Y-1506936D01*
X448753Y-1506936D02*
X448753Y-1525984D01*
X629705Y-1392650D02*
X629705Y-1525984D01*
X582086Y-1316460D02*
X534467Y-1459317D01*
X534467Y-1459317D02*
X658277Y-1459317D01*
X772562Y-1325984D02*
X791610Y-1325984D01*
X791610Y-1325984D02*
X810658Y-1335508D01*
X810658Y-1335508D02*
X820182Y-1345031D01*
X820182Y-1345031D02*
X829705Y-1364079D01*
X829705Y-1364079D02*
X839229Y-1402174D01*
X839229Y-1402174D02*
X839229Y-1449793D01*
X839229Y-1449793D02*
X829705Y-1487888D01*
X829705Y-1487888D02*
X820182Y-1506936D01*
X820182Y-1506936D02*
X810658Y-1516460D01*
X810658Y-1516460D02*
X791610Y-1525984D01*
X791610Y-1525984D02*
X772562Y-1525984D01*
X772562Y-1525984D02*
X753515Y-1516460D01*
X753515Y-1516460D02*
X743991Y-1506936D01*
X743991Y-1506936D02*
X734467Y-1487888D01*
X734467Y-1487888D02*
X724943Y-1449793D01*
X724943Y-1449793D02*
X724943Y-1402174D01*
X724943Y-1402174D02*
X734467Y-1364079D01*
X734467Y-1364079D02*
X743991Y-1345031D01*
X743991Y-1345031D02*
X753515Y-1335508D01*
X753515Y-1335508D02*
X772562Y-1325984D01*
X963039Y-1325984D02*
X982086Y-1325984D01*
X982086Y-1325984D02*
X1001134Y-1335508D01*
X1001134Y-1335508D02*
X1010658Y-1345031D01*
X1010658Y-1345031D02*
X1020182Y-1364079D01*
X1020182Y-1364079D02*
X1029705Y-1402174D01*
X1029705Y-1402174D02*
X1029705Y-1449793D01*
X1029705Y-1449793D02*
X1020182Y-1487888D01*
X1020182Y-1487888D02*
X1010658Y-1506936D01*
X1010658Y-1506936D02*
X1001134Y-1516460D01*
X1001134Y-1516460D02*
X982086Y-1525984D01*
X982086Y-1525984D02*
X963039Y-1525984D01*
X963039Y-1525984D02*
X943991Y-1516460D01*
X943991Y-1516460D02*
X934467Y-1506936D01*
X934467Y-1506936D02*
X924943Y-1487888D01*
X924943Y-1487888D02*
X915420Y-1449793D01*
X915420Y-1449793D02*
X915420Y-1402174D01*
X915420Y-1402174D02*
X924943Y-1364079D01*
X924943Y-1364079D02*
X934467Y-1345031D01*
X934467Y-1345031D02*
X943991Y-1335508D01*
X943991Y-1335508D02*
X963039Y-1325984D01*
X1115420Y-1525984D02*
X1115420Y-1392650D01*
X1115420Y-1411698D02*
X1124944Y-1402174D01*
X1124944Y-1402174D02*
X1143991Y-1392650D01*
X1143991Y-1392650D02*
X1172563Y-1392650D01*
X1172563Y-1392650D02*
X1191610Y-1402174D01*
X1191610Y-1402174D02*
X1201134Y-1421222D01*
X1201134Y-1421222D02*
X1201134Y-1525984D01*
X1201134Y-1421222D02*
X1210658Y-1402174D01*
X1210658Y-1402174D02*
X1229705Y-1392650D01*
X1229705Y-1392650D02*
X1258277Y-1392650D01*
X1258277Y-1392650D02*
X1277325Y-1402174D01*
X1277325Y-1402174D02*
X1286848Y-1421222D01*
X1286848Y-1421222D02*
X1286848Y-1525984D01*
X1382086Y-1525984D02*
X1382086Y-1392650D01*
X1382086Y-1411698D02*
X1391610Y-1402174D01*
X1391610Y-1402174D02*
X1410658Y-1392650D01*
X1410658Y-1392650D02*
X1439229Y-1392650D01*
X1439229Y-1392650D02*
X1458277Y-1402174D01*
X1458277Y-1402174D02*
X1467801Y-1421222D01*
X1467801Y-1421222D02*
X1467801Y-1525984D01*
X1467801Y-1421222D02*
X1477324Y-1402174D01*
X1477324Y-1402174D02*
X1496372Y-1392650D01*
X1496372Y-1392650D02*
X1524943Y-1392650D01*
X1524943Y-1392650D02*
X1543991Y-1402174D01*
X1543991Y-1402174D02*
X1553515Y-1421222D01*
X1553515Y-1421222D02*
X1553515Y-1525984D01*
X1943991Y-1316460D02*
X1772563Y-1573603D01*
X2201134Y-1325984D02*
X2220182Y-1325984D01*
X2220182Y-1325984D02*
X2239229Y-1335508D01*
X2239229Y-1335508D02*
X2248753Y-1345031D01*
X2248753Y-1345031D02*
X2258277Y-1364079D01*
X2258277Y-1364079D02*
X2267801Y-1402174D01*
X2267801Y-1402174D02*
X2267801Y-1449793D01*
X2267801Y-1449793D02*
X2258277Y-1487888D01*
X2258277Y-1487888D02*
X2248753Y-1506936D01*
X2248753Y-1506936D02*
X2239229Y-1516460D01*
X2239229Y-1516460D02*
X2220182Y-1525984D01*
X2220182Y-1525984D02*
X2201134Y-1525984D01*
X2201134Y-1525984D02*
X2182087Y-1516460D01*
X2182087Y-1516460D02*
X2172563Y-1506936D01*
X2172563Y-1506936D02*
X2163039Y-1487888D01*
X2163039Y-1487888D02*
X2153515Y-1449793D01*
X2153515Y-1449793D02*
X2153515Y-1402174D01*
X2153515Y-1402174D02*
X2163039Y-1364079D01*
X2163039Y-1364079D02*
X2172563Y-1345031D01*
X2172563Y-1345031D02*
X2182087Y-1335508D01*
X2182087Y-1335508D02*
X2201134Y-1325984D01*
X2353515Y-1506936D02*
X2363039Y-1516460D01*
X2363039Y-1516460D02*
X2353515Y-1525984D01*
X2353515Y-1525984D02*
X2343991Y-1516460D01*
X2343991Y-1516460D02*
X2353515Y-1506936D01*
X2353515Y-1506936D02*
X2353515Y-1525984D01*
X2486848Y-1325984D02*
X2505896Y-1325984D01*
X2505896Y-1325984D02*
X2524944Y-1335508D01*
X2524944Y-1335508D02*
X2534468Y-1345031D01*
X2534468Y-1345031D02*
X2543991Y-1364079D01*
X2543991Y-1364079D02*
X2553515Y-1402174D01*
X2553515Y-1402174D02*
X2553515Y-1449793D01*
X2553515Y-1449793D02*
X2543991Y-1487888D01*
X2543991Y-1487888D02*
X2534468Y-1506936D01*
X2534468Y-1506936D02*
X2524944Y-1516460D01*
X2524944Y-1516460D02*
X2505896Y-1525984D01*
X2505896Y-1525984D02*
X2486848Y-1525984D01*
X2486848Y-1525984D02*
X2467801Y-1516460D01*
X2467801Y-1516460D02*
X2458277Y-1506936D01*
X2458277Y-1506936D02*
X2448753Y-1487888D01*
X2448753Y-1487888D02*
X2439229Y-1449793D01*
X2439229Y-1449793D02*
X2439229Y-1402174D01*
X2439229Y-1402174D02*
X2448753Y-1364079D01*
X2448753Y-1364079D02*
X2458277Y-1345031D01*
X2458277Y-1345031D02*
X2467801Y-1335508D01*
X2467801Y-1335508D02*
X2486848Y-1325984D01*
X2734468Y-1325984D02*
X2639229Y-1325984D01*
X2639229Y-1325984D02*
X2629706Y-1421222D01*
X2629706Y-1421222D02*
X2639229Y-1411698D01*
X2639229Y-1411698D02*
X2658277Y-1402174D01*
X2658277Y-1402174D02*
X2705896Y-1402174D01*
X2705896Y-1402174D02*
X2724944Y-1411698D01*
X2724944Y-1411698D02*
X2734468Y-1421222D01*
X2734468Y-1421222D02*
X2743991Y-1440269D01*
X2743991Y-1440269D02*
X2743991Y-1487888D01*
X2743991Y-1487888D02*
X2734468Y-1506936D01*
X2734468Y-1506936D02*
X2724944Y-1516460D01*
X2724944Y-1516460D02*
X2705896Y-1525984D01*
X2705896Y-1525984D02*
X2658277Y-1525984D01*
X2658277Y-1525984D02*
X2639229Y-1516460D01*
X2639229Y-1516460D02*
X2629706Y-1506936D01*
X2924944Y-1325984D02*
X2829706Y-1325984D01*
X2829706Y-1325984D02*
X2820182Y-1421222D01*
X2820182Y-1421222D02*
X2829706Y-1411698D01*
X2829706Y-1411698D02*
X2848753Y-1402174D01*
X2848753Y-1402174D02*
X2896372Y-1402174D01*
X2896372Y-1402174D02*
X2915420Y-1411698D01*
X2915420Y-1411698D02*
X2924944Y-1421222D01*
X2924944Y-1421222D02*
X2934467Y-1440269D01*
X2934467Y-1440269D02*
X2934467Y-1487888D01*
X2934467Y-1487888D02*
X2924944Y-1506936D01*
X2924944Y-1506936D02*
X2915420Y-1516460D01*
X2915420Y-1516460D02*
X2896372Y-1525984D01*
X2896372Y-1525984D02*
X2848753Y-1525984D01*
X2848753Y-1525984D02*
X2829706Y-1516460D01*
X2829706Y-1516460D02*
X2820182Y-1506936D01*
X3124944Y-1525984D02*
X3010658Y-1525984D01*
X3067801Y-1525984D02*
X3067801Y-1325984D01*
X3067801Y-1325984D02*
X3048753Y-1354555D01*
X3048753Y-1354555D02*
X3029706Y-1373603D01*
X3029706Y-1373603D02*
X3010658Y-1383127D01*
X3201134Y-1325984D02*
X3201134Y-1364079D01*
X3277325Y-1325984D02*
X3277325Y-1364079D01*
X3572563Y-1602174D02*
X3563039Y-1592650D01*
X3563039Y-1592650D02*
X3543991Y-1564079D01*
X3543991Y-1564079D02*
X3534468Y-1545031D01*
X3534468Y-1545031D02*
X3524944Y-1516460D01*
X3524944Y-1516460D02*
X3515420Y-1468841D01*
X3515420Y-1468841D02*
X3515420Y-1430746D01*
X3515420Y-1430746D02*
X3524944Y-1383127D01*
X3524944Y-1383127D02*
X3534468Y-1354555D01*
X3534468Y-1354555D02*
X3543991Y-1335508D01*
X3543991Y-1335508D02*
X3563039Y-1306936D01*
X3563039Y-1306936D02*
X3572563Y-1297412D01*
X3677325Y-1411698D02*
X3658277Y-1402174D01*
X3658277Y-1402174D02*
X3648753Y-1392650D01*
X3648753Y-1392650D02*
X3639229Y-1373603D01*
X3639229Y-1373603D02*
X3639229Y-1364079D01*
X3639229Y-1364079D02*
X3648753Y-1345031D01*
X3648753Y-1345031D02*
X3658277Y-1335508D01*
X3658277Y-1335508D02*
X3677325Y-1325984D01*
X3677325Y-1325984D02*
X3715420Y-1325984D01*
X3715420Y-1325984D02*
X3734468Y-1335508D01*
X3734468Y-1335508D02*
X3743991Y-1345031D01*
X3743991Y-1345031D02*
X3753515Y-1364079D01*
X3753515Y-1364079D02*
X3753515Y-1373603D01*
X3753515Y-1373603D02*
X3743991Y-1392650D01*
X3743991Y-1392650D02*
X3734468Y-1402174D01*
X3734468Y-1402174D02*
X3715420Y-1411698D01*
X3715420Y-1411698D02*
X3677325Y-1411698D01*
X3677325Y-1411698D02*
X3658277Y-1421222D01*
X3658277Y-1421222D02*
X3648753Y-1430746D01*
X3648753Y-1430746D02*
X3639229Y-1449793D01*
X3639229Y-1449793D02*
X3639229Y-1487888D01*
X3639229Y-1487888D02*
X3648753Y-1506936D01*
X3648753Y-1506936D02*
X3658277Y-1516460D01*
X3658277Y-1516460D02*
X3677325Y-1525984D01*
X3677325Y-1525984D02*
X3715420Y-1525984D01*
X3715420Y-1525984D02*
X3734468Y-1516460D01*
X3734468Y-1516460D02*
X3743991Y-1506936D01*
X3743991Y-1506936D02*
X3753515Y-1487888D01*
X3753515Y-1487888D02*
X3753515Y-1449793D01*
X3753515Y-1449793D02*
X3743991Y-1430746D01*
X3743991Y-1430746D02*
X3734468Y-1421222D01*
X3734468Y-1421222D02*
X3715420Y-1411698D01*
X3991610Y-1525984D02*
X3991610Y-1325984D01*
X4077325Y-1525984D02*
X4077325Y-1421222D01*
X4077325Y-1421222D02*
X4067801Y-1402174D01*
X4067801Y-1402174D02*
X4048753Y-1392650D01*
X4048753Y-1392650D02*
X4020182Y-1392650D01*
X4020182Y-1392650D02*
X4001134Y-1402174D01*
X4001134Y-1402174D02*
X3991610Y-1411698D01*
X4201134Y-1525984D02*
X4182087Y-1516460D01*
X4182087Y-1516460D02*
X4172563Y-1506936D01*
X4172563Y-1506936D02*
X4163039Y-1487888D01*
X4163039Y-1487888D02*
X4163039Y-1430746D01*
X4163039Y-1430746D02*
X4172563Y-1411698D01*
X4172563Y-1411698D02*
X4182087Y-1402174D01*
X4182087Y-1402174D02*
X4201134Y-1392650D01*
X4201134Y-1392650D02*
X4229706Y-1392650D01*
X4229706Y-1392650D02*
X4248753Y-1402174D01*
X4248753Y-1402174D02*
X4258277Y-1411698D01*
X4258277Y-1411698D02*
X4267801Y-1430746D01*
X4267801Y-1430746D02*
X4267801Y-1487888D01*
X4267801Y-1487888D02*
X4258277Y-1506936D01*
X4258277Y-1506936D02*
X4248753Y-1516460D01*
X4248753Y-1516460D02*
X4229706Y-1525984D01*
X4229706Y-1525984D02*
X4201134Y-1525984D01*
X4382087Y-1525984D02*
X4363039Y-1516460D01*
X4363039Y-1516460D02*
X4353515Y-1497412D01*
X4353515Y-1497412D02*
X4353515Y-1325984D01*
X4534468Y-1516460D02*
X4515420Y-1525984D01*
X4515420Y-1525984D02*
X4477325Y-1525984D01*
X4477325Y-1525984D02*
X4458277Y-1516460D01*
X4458277Y-1516460D02*
X4448753Y-1497412D01*
X4448753Y-1497412D02*
X4448753Y-1421222D01*
X4448753Y-1421222D02*
X4458277Y-1402174D01*
X4458277Y-1402174D02*
X4477325Y-1392650D01*
X4477325Y-1392650D02*
X4515420Y-1392650D01*
X4515420Y-1392650D02*
X4534468Y-1402174D01*
X4534468Y-1402174D02*
X4543992Y-1421222D01*
X4543992Y-1421222D02*
X4543992Y-1440269D01*
X4543992Y-1440269D02*
X4448753Y-1459317D01*
X4620182Y-1516460D02*
X4639230Y-1525984D01*
X4639230Y-1525984D02*
X4677325Y-1525984D01*
X4677325Y-1525984D02*
X4696373Y-1516460D01*
X4696373Y-1516460D02*
X4705896Y-1497412D01*
X4705896Y-1497412D02*
X4705896Y-1487888D01*
X4705896Y-1487888D02*
X4696373Y-1468841D01*
X4696373Y-1468841D02*
X4677325Y-1459317D01*
X4677325Y-1459317D02*
X4648753Y-1459317D01*
X4648753Y-1459317D02*
X4629706Y-1449793D01*
X4629706Y-1449793D02*
X4620182Y-1430746D01*
X4620182Y-1430746D02*
X4620182Y-1421222D01*
X4620182Y-1421222D02*
X4629706Y-1402174D01*
X4629706Y-1402174D02*
X4648753Y-1392650D01*
X4648753Y-1392650D02*
X4677325Y-1392650D01*
X4677325Y-1392650D02*
X4696373Y-1402174D01*
X4772563Y-1602174D02*
X4782087Y-1592650D01*
X4782087Y-1592650D02*
X4801134Y-1564079D01*
X4801134Y-1564079D02*
X4810658Y-1545031D01*
X4810658Y-1545031D02*
X4820182Y-1516460D01*
X4820182Y-1516460D02*
X4829706Y-1468841D01*
X4829706Y-1468841D02*
X4829706Y-1430746D01*
X4829706Y-1430746D02*
X4820182Y-1383127D01*
X4820182Y-1383127D02*
X4810658Y-1354555D01*
X4810658Y-1354555D02*
X4801134Y-1335508D01*
X4801134Y-1335508D02*
X4782087Y-1306936D01*
X4782087Y-1306936D02*
X4772563Y-1297412D01*
D14*
X-92500Y-1788500D02*
X-2500Y-1698500D01*
X-92500Y-1608500D01*
X-182500Y-1698500D01*
X-92500Y-1788500D01*
D11*
X363039Y-1789984D02*
X248753Y-1789984D01*
X305896Y-1789984D02*
X305896Y-1589984D01*
X305896Y-1589984D02*
X286848Y-1618555D01*
X286848Y-1618555D02*
X267801Y-1637603D01*
X267801Y-1637603D02*
X248753Y-1647127D01*
X448753Y-1770936D02*
X458277Y-1780460D01*
X458277Y-1780460D02*
X448753Y-1789984D01*
X448753Y-1789984D02*
X439229Y-1780460D01*
X439229Y-1780460D02*
X448753Y-1770936D01*
X448753Y-1770936D02*
X448753Y-1789984D01*
X572563Y-1675698D02*
X553515Y-1666174D01*
X553515Y-1666174D02*
X543991Y-1656650D01*
X543991Y-1656650D02*
X534467Y-1637603D01*
X534467Y-1637603D02*
X534467Y-1628079D01*
X534467Y-1628079D02*
X543991Y-1609031D01*
X543991Y-1609031D02*
X553515Y-1599508D01*
X553515Y-1599508D02*
X572563Y-1589984D01*
X572563Y-1589984D02*
X610658Y-1589984D01*
X610658Y-1589984D02*
X629705Y-1599508D01*
X629705Y-1599508D02*
X639229Y-1609031D01*
X639229Y-1609031D02*
X648753Y-1628079D01*
X648753Y-1628079D02*
X648753Y-1637603D01*
X648753Y-1637603D02*
X639229Y-1656650D01*
X639229Y-1656650D02*
X629705Y-1666174D01*
X629705Y-1666174D02*
X610658Y-1675698D01*
X610658Y-1675698D02*
X572563Y-1675698D01*
X572563Y-1675698D02*
X553515Y-1685222D01*
X553515Y-1685222D02*
X543991Y-1694746D01*
X543991Y-1694746D02*
X534467Y-1713793D01*
X534467Y-1713793D02*
X534467Y-1751888D01*
X534467Y-1751888D02*
X543991Y-1770936D01*
X543991Y-1770936D02*
X553515Y-1780460D01*
X553515Y-1780460D02*
X572563Y-1789984D01*
X572563Y-1789984D02*
X610658Y-1789984D01*
X610658Y-1789984D02*
X629705Y-1780460D01*
X629705Y-1780460D02*
X639229Y-1770936D01*
X639229Y-1770936D02*
X648753Y-1751888D01*
X648753Y-1751888D02*
X648753Y-1713793D01*
X648753Y-1713793D02*
X639229Y-1694746D01*
X639229Y-1694746D02*
X629705Y-1685222D01*
X629705Y-1685222D02*
X610658Y-1675698D01*
X772562Y-1589984D02*
X791610Y-1589984D01*
X791610Y-1589984D02*
X810658Y-1599508D01*
X810658Y-1599508D02*
X820182Y-1609031D01*
X820182Y-1609031D02*
X829705Y-1628079D01*
X829705Y-1628079D02*
X839229Y-1666174D01*
X839229Y-1666174D02*
X839229Y-1713793D01*
X839229Y-1713793D02*
X829705Y-1751888D01*
X829705Y-1751888D02*
X820182Y-1770936D01*
X820182Y-1770936D02*
X810658Y-1780460D01*
X810658Y-1780460D02*
X791610Y-1789984D01*
X791610Y-1789984D02*
X772562Y-1789984D01*
X772562Y-1789984D02*
X753515Y-1780460D01*
X753515Y-1780460D02*
X743991Y-1770936D01*
X743991Y-1770936D02*
X734467Y-1751888D01*
X734467Y-1751888D02*
X724943Y-1713793D01*
X724943Y-1713793D02*
X724943Y-1666174D01*
X724943Y-1666174D02*
X734467Y-1628079D01*
X734467Y-1628079D02*
X743991Y-1609031D01*
X743991Y-1609031D02*
X753515Y-1599508D01*
X753515Y-1599508D02*
X772562Y-1589984D01*
X963039Y-1589984D02*
X982086Y-1589984D01*
X982086Y-1589984D02*
X1001134Y-1599508D01*
X1001134Y-1599508D02*
X1010658Y-1609031D01*
X1010658Y-1609031D02*
X1020182Y-1628079D01*
X1020182Y-1628079D02*
X1029705Y-1666174D01*
X1029705Y-1666174D02*
X1029705Y-1713793D01*
X1029705Y-1713793D02*
X1020182Y-1751888D01*
X1020182Y-1751888D02*
X1010658Y-1770936D01*
X1010658Y-1770936D02*
X1001134Y-1780460D01*
X1001134Y-1780460D02*
X982086Y-1789984D01*
X982086Y-1789984D02*
X963039Y-1789984D01*
X963039Y-1789984D02*
X943991Y-1780460D01*
X943991Y-1780460D02*
X934467Y-1770936D01*
X934467Y-1770936D02*
X924943Y-1751888D01*
X924943Y-1751888D02*
X915420Y-1713793D01*
X915420Y-1713793D02*
X915420Y-1666174D01*
X915420Y-1666174D02*
X924943Y-1628079D01*
X924943Y-1628079D02*
X934467Y-1609031D01*
X934467Y-1609031D02*
X943991Y-1599508D01*
X943991Y-1599508D02*
X963039Y-1589984D01*
X1115420Y-1789984D02*
X1115420Y-1656650D01*
X1115420Y-1675698D02*
X1124944Y-1666174D01*
X1124944Y-1666174D02*
X1143991Y-1656650D01*
X1143991Y-1656650D02*
X1172563Y-1656650D01*
X1172563Y-1656650D02*
X1191610Y-1666174D01*
X1191610Y-1666174D02*
X1201134Y-1685222D01*
X1201134Y-1685222D02*
X1201134Y-1789984D01*
X1201134Y-1685222D02*
X1210658Y-1666174D01*
X1210658Y-1666174D02*
X1229705Y-1656650D01*
X1229705Y-1656650D02*
X1258277Y-1656650D01*
X1258277Y-1656650D02*
X1277325Y-1666174D01*
X1277325Y-1666174D02*
X1286848Y-1685222D01*
X1286848Y-1685222D02*
X1286848Y-1789984D01*
X1382086Y-1789984D02*
X1382086Y-1656650D01*
X1382086Y-1675698D02*
X1391610Y-1666174D01*
X1391610Y-1666174D02*
X1410658Y-1656650D01*
X1410658Y-1656650D02*
X1439229Y-1656650D01*
X1439229Y-1656650D02*
X1458277Y-1666174D01*
X1458277Y-1666174D02*
X1467801Y-1685222D01*
X1467801Y-1685222D02*
X1467801Y-1789984D01*
X1467801Y-1685222D02*
X1477324Y-1666174D01*
X1477324Y-1666174D02*
X1496372Y-1656650D01*
X1496372Y-1656650D02*
X1524943Y-1656650D01*
X1524943Y-1656650D02*
X1543991Y-1666174D01*
X1543991Y-1666174D02*
X1553515Y-1685222D01*
X1553515Y-1685222D02*
X1553515Y-1789984D01*
X1943991Y-1580460D02*
X1772563Y-1837603D01*
X2201134Y-1589984D02*
X2220182Y-1589984D01*
X2220182Y-1589984D02*
X2239229Y-1599508D01*
X2239229Y-1599508D02*
X2248753Y-1609031D01*
X2248753Y-1609031D02*
X2258277Y-1628079D01*
X2258277Y-1628079D02*
X2267801Y-1666174D01*
X2267801Y-1666174D02*
X2267801Y-1713793D01*
X2267801Y-1713793D02*
X2258277Y-1751888D01*
X2258277Y-1751888D02*
X2248753Y-1770936D01*
X2248753Y-1770936D02*
X2239229Y-1780460D01*
X2239229Y-1780460D02*
X2220182Y-1789984D01*
X2220182Y-1789984D02*
X2201134Y-1789984D01*
X2201134Y-1789984D02*
X2182087Y-1780460D01*
X2182087Y-1780460D02*
X2172563Y-1770936D01*
X2172563Y-1770936D02*
X2163039Y-1751888D01*
X2163039Y-1751888D02*
X2153515Y-1713793D01*
X2153515Y-1713793D02*
X2153515Y-1666174D01*
X2153515Y-1666174D02*
X2163039Y-1628079D01*
X2163039Y-1628079D02*
X2172563Y-1609031D01*
X2172563Y-1609031D02*
X2182087Y-1599508D01*
X2182087Y-1599508D02*
X2201134Y-1589984D01*
X2353515Y-1770936D02*
X2363039Y-1780460D01*
X2363039Y-1780460D02*
X2353515Y-1789984D01*
X2353515Y-1789984D02*
X2343991Y-1780460D01*
X2343991Y-1780460D02*
X2353515Y-1770936D01*
X2353515Y-1770936D02*
X2353515Y-1789984D01*
X2486848Y-1589984D02*
X2505896Y-1589984D01*
X2505896Y-1589984D02*
X2524944Y-1599508D01*
X2524944Y-1599508D02*
X2534468Y-1609031D01*
X2534468Y-1609031D02*
X2543991Y-1628079D01*
X2543991Y-1628079D02*
X2553515Y-1666174D01*
X2553515Y-1666174D02*
X2553515Y-1713793D01*
X2553515Y-1713793D02*
X2543991Y-1751888D01*
X2543991Y-1751888D02*
X2534468Y-1770936D01*
X2534468Y-1770936D02*
X2524944Y-1780460D01*
X2524944Y-1780460D02*
X2505896Y-1789984D01*
X2505896Y-1789984D02*
X2486848Y-1789984D01*
X2486848Y-1789984D02*
X2467801Y-1780460D01*
X2467801Y-1780460D02*
X2458277Y-1770936D01*
X2458277Y-1770936D02*
X2448753Y-1751888D01*
X2448753Y-1751888D02*
X2439229Y-1713793D01*
X2439229Y-1713793D02*
X2439229Y-1666174D01*
X2439229Y-1666174D02*
X2448753Y-1628079D01*
X2448753Y-1628079D02*
X2458277Y-1609031D01*
X2458277Y-1609031D02*
X2467801Y-1599508D01*
X2467801Y-1599508D02*
X2486848Y-1589984D01*
X2620182Y-1589984D02*
X2753515Y-1589984D01*
X2753515Y-1589984D02*
X2667801Y-1789984D01*
X2867801Y-1589984D02*
X2886848Y-1589984D01*
X2886848Y-1589984D02*
X2905896Y-1599508D01*
X2905896Y-1599508D02*
X2915420Y-1609031D01*
X2915420Y-1609031D02*
X2924944Y-1628079D01*
X2924944Y-1628079D02*
X2934467Y-1666174D01*
X2934467Y-1666174D02*
X2934467Y-1713793D01*
X2934467Y-1713793D02*
X2924944Y-1751888D01*
X2924944Y-1751888D02*
X2915420Y-1770936D01*
X2915420Y-1770936D02*
X2905896Y-1780460D01*
X2905896Y-1780460D02*
X2886848Y-1789984D01*
X2886848Y-1789984D02*
X2867801Y-1789984D01*
X2867801Y-1789984D02*
X2848753Y-1780460D01*
X2848753Y-1780460D02*
X2839229Y-1770936D01*
X2839229Y-1770936D02*
X2829706Y-1751888D01*
X2829706Y-1751888D02*
X2820182Y-1713793D01*
X2820182Y-1713793D02*
X2820182Y-1666174D01*
X2820182Y-1666174D02*
X2829706Y-1628079D01*
X2829706Y-1628079D02*
X2839229Y-1609031D01*
X2839229Y-1609031D02*
X2848753Y-1599508D01*
X2848753Y-1599508D02*
X2867801Y-1589984D01*
X3029706Y-1789984D02*
X3067801Y-1789984D01*
X3067801Y-1789984D02*
X3086848Y-1780460D01*
X3086848Y-1780460D02*
X3096372Y-1770936D01*
X3096372Y-1770936D02*
X3115420Y-1742365D01*
X3115420Y-1742365D02*
X3124944Y-1704269D01*
X3124944Y-1704269D02*
X3124944Y-1628079D01*
X3124944Y-1628079D02*
X3115420Y-1609031D01*
X3115420Y-1609031D02*
X3105896Y-1599508D01*
X3105896Y-1599508D02*
X3086848Y-1589984D01*
X3086848Y-1589984D02*
X3048753Y-1589984D01*
X3048753Y-1589984D02*
X3029706Y-1599508D01*
X3029706Y-1599508D02*
X3020182Y-1609031D01*
X3020182Y-1609031D02*
X3010658Y-1628079D01*
X3010658Y-1628079D02*
X3010658Y-1675698D01*
X3010658Y-1675698D02*
X3020182Y-1694746D01*
X3020182Y-1694746D02*
X3029706Y-1704269D01*
X3029706Y-1704269D02*
X3048753Y-1713793D01*
X3048753Y-1713793D02*
X3086848Y-1713793D01*
X3086848Y-1713793D02*
X3105896Y-1704269D01*
X3105896Y-1704269D02*
X3115420Y-1694746D01*
X3115420Y-1694746D02*
X3124944Y-1675698D01*
X3201134Y-1589984D02*
X3201134Y-1628079D01*
X3277325Y-1589984D02*
X3277325Y-1628079D01*
X3572563Y-1866174D02*
X3563039Y-1856650D01*
X3563039Y-1856650D02*
X3543991Y-1828079D01*
X3543991Y-1828079D02*
X3534468Y-1809031D01*
X3534468Y-1809031D02*
X3524944Y-1780460D01*
X3524944Y-1780460D02*
X3515420Y-1732841D01*
X3515420Y-1732841D02*
X3515420Y-1694746D01*
X3515420Y-1694746D02*
X3524944Y-1647127D01*
X3524944Y-1647127D02*
X3534468Y-1618555D01*
X3534468Y-1618555D02*
X3543991Y-1599508D01*
X3543991Y-1599508D02*
X3563039Y-1570936D01*
X3563039Y-1570936D02*
X3572563Y-1561412D01*
X3686848Y-1589984D02*
X3705896Y-1589984D01*
X3705896Y-1589984D02*
X3724944Y-1599508D01*
X3724944Y-1599508D02*
X3734468Y-1609031D01*
X3734468Y-1609031D02*
X3743991Y-1628079D01*
X3743991Y-1628079D02*
X3753515Y-1666174D01*
X3753515Y-1666174D02*
X3753515Y-1713793D01*
X3753515Y-1713793D02*
X3743991Y-1751888D01*
X3743991Y-1751888D02*
X3734468Y-1770936D01*
X3734468Y-1770936D02*
X3724944Y-1780460D01*
X3724944Y-1780460D02*
X3705896Y-1789984D01*
X3705896Y-1789984D02*
X3686848Y-1789984D01*
X3686848Y-1789984D02*
X3667801Y-1780460D01*
X3667801Y-1780460D02*
X3658277Y-1770936D01*
X3658277Y-1770936D02*
X3648753Y-1751888D01*
X3648753Y-1751888D02*
X3639229Y-1713793D01*
X3639229Y-1713793D02*
X3639229Y-1666174D01*
X3639229Y-1666174D02*
X3648753Y-1628079D01*
X3648753Y-1628079D02*
X3658277Y-1609031D01*
X3658277Y-1609031D02*
X3667801Y-1599508D01*
X3667801Y-1599508D02*
X3686848Y-1589984D01*
X3991610Y-1789984D02*
X3991610Y-1589984D01*
X4077325Y-1789984D02*
X4077325Y-1685222D01*
X4077325Y-1685222D02*
X4067801Y-1666174D01*
X4067801Y-1666174D02*
X4048753Y-1656650D01*
X4048753Y-1656650D02*
X4020182Y-1656650D01*
X4020182Y-1656650D02*
X4001134Y-1666174D01*
X4001134Y-1666174D02*
X3991610Y-1675698D01*
X4201134Y-1789984D02*
X4182087Y-1780460D01*
X4182087Y-1780460D02*
X4172563Y-1770936D01*
X4172563Y-1770936D02*
X4163039Y-1751888D01*
X4163039Y-1751888D02*
X4163039Y-1694746D01*
X4163039Y-1694746D02*
X4172563Y-1675698D01*
X4172563Y-1675698D02*
X4182087Y-1666174D01*
X4182087Y-1666174D02*
X4201134Y-1656650D01*
X4201134Y-1656650D02*
X4229706Y-1656650D01*
X4229706Y-1656650D02*
X4248753Y-1666174D01*
X4248753Y-1666174D02*
X4258277Y-1675698D01*
X4258277Y-1675698D02*
X4267801Y-1694746D01*
X4267801Y-1694746D02*
X4267801Y-1751888D01*
X4267801Y-1751888D02*
X4258277Y-1770936D01*
X4258277Y-1770936D02*
X4248753Y-1780460D01*
X4248753Y-1780460D02*
X4229706Y-1789984D01*
X4229706Y-1789984D02*
X4201134Y-1789984D01*
X4382087Y-1789984D02*
X4363039Y-1780460D01*
X4363039Y-1780460D02*
X4353515Y-1761412D01*
X4353515Y-1761412D02*
X4353515Y-1589984D01*
X4534468Y-1780460D02*
X4515420Y-1789984D01*
X4515420Y-1789984D02*
X4477325Y-1789984D01*
X4477325Y-1789984D02*
X4458277Y-1780460D01*
X4458277Y-1780460D02*
X4448753Y-1761412D01*
X4448753Y-1761412D02*
X4448753Y-1685222D01*
X4448753Y-1685222D02*
X4458277Y-1666174D01*
X4458277Y-1666174D02*
X4477325Y-1656650D01*
X4477325Y-1656650D02*
X4515420Y-1656650D01*
X4515420Y-1656650D02*
X4534468Y-1666174D01*
X4534468Y-1666174D02*
X4543992Y-1685222D01*
X4543992Y-1685222D02*
X4543992Y-1704269D01*
X4543992Y-1704269D02*
X4448753Y-1723317D01*
X4620182Y-1780460D02*
X4639230Y-1789984D01*
X4639230Y-1789984D02*
X4677325Y-1789984D01*
X4677325Y-1789984D02*
X4696373Y-1780460D01*
X4696373Y-1780460D02*
X4705896Y-1761412D01*
X4705896Y-1761412D02*
X4705896Y-1751888D01*
X4705896Y-1751888D02*
X4696373Y-1732841D01*
X4696373Y-1732841D02*
X4677325Y-1723317D01*
X4677325Y-1723317D02*
X4648753Y-1723317D01*
X4648753Y-1723317D02*
X4629706Y-1713793D01*
X4629706Y-1713793D02*
X4620182Y-1694746D01*
X4620182Y-1694746D02*
X4620182Y-1685222D01*
X4620182Y-1685222D02*
X4629706Y-1666174D01*
X4629706Y-1666174D02*
X4648753Y-1656650D01*
X4648753Y-1656650D02*
X4677325Y-1656650D01*
X4677325Y-1656650D02*
X4696373Y-1666174D01*
X4943992Y-1713793D02*
X5096373Y-1713793D01*
X5020182Y-1789984D02*
X5020182Y-1637603D01*
X5334468Y-1609031D02*
X5343992Y-1599508D01*
X5343992Y-1599508D02*
X5363039Y-1589984D01*
X5363039Y-1589984D02*
X5410658Y-1589984D01*
X5410658Y-1589984D02*
X5429706Y-1599508D01*
X5429706Y-1599508D02*
X5439230Y-1609031D01*
X5439230Y-1609031D02*
X5448754Y-1628079D01*
X5448754Y-1628079D02*
X5448754Y-1647127D01*
X5448754Y-1647127D02*
X5439230Y-1675698D01*
X5439230Y-1675698D02*
X5324944Y-1789984D01*
X5324944Y-1789984D02*
X5448754Y-1789984D01*
X5677325Y-1780460D02*
X5696373Y-1789984D01*
X5696373Y-1789984D02*
X5734468Y-1789984D01*
X5734468Y-1789984D02*
X5753515Y-1780460D01*
X5753515Y-1780460D02*
X5763039Y-1761412D01*
X5763039Y-1761412D02*
X5763039Y-1751888D01*
X5763039Y-1751888D02*
X5753515Y-1732841D01*
X5753515Y-1732841D02*
X5734468Y-1723317D01*
X5734468Y-1723317D02*
X5705896Y-1723317D01*
X5705896Y-1723317D02*
X5686849Y-1713793D01*
X5686849Y-1713793D02*
X5677325Y-1694746D01*
X5677325Y-1694746D02*
X5677325Y-1685222D01*
X5677325Y-1685222D02*
X5686849Y-1666174D01*
X5686849Y-1666174D02*
X5705896Y-1656650D01*
X5705896Y-1656650D02*
X5734468Y-1656650D01*
X5734468Y-1656650D02*
X5753515Y-1666174D01*
X5877325Y-1789984D02*
X5858277Y-1780460D01*
X5858277Y-1780460D02*
X5848754Y-1761412D01*
X5848754Y-1761412D02*
X5848754Y-1589984D01*
X5982087Y-1789984D02*
X5963039Y-1780460D01*
X5963039Y-1780460D02*
X5953515Y-1770936D01*
X5953515Y-1770936D02*
X5943992Y-1751888D01*
X5943992Y-1751888D02*
X5943992Y-1694746D01*
X5943992Y-1694746D02*
X5953515Y-1675698D01*
X5953515Y-1675698D02*
X5963039Y-1666174D01*
X5963039Y-1666174D02*
X5982087Y-1656650D01*
X5982087Y-1656650D02*
X6010658Y-1656650D01*
X6010658Y-1656650D02*
X6029706Y-1666174D01*
X6029706Y-1666174D02*
X6039230Y-1675698D01*
X6039230Y-1675698D02*
X6048754Y-1694746D01*
X6048754Y-1694746D02*
X6048754Y-1751888D01*
X6048754Y-1751888D02*
X6039230Y-1770936D01*
X6039230Y-1770936D02*
X6029706Y-1780460D01*
X6029706Y-1780460D02*
X6010658Y-1789984D01*
X6010658Y-1789984D02*
X5982087Y-1789984D01*
X6105896Y-1656650D02*
X6182087Y-1656650D01*
X6134468Y-1589984D02*
X6134468Y-1761412D01*
X6134468Y-1761412D02*
X6143992Y-1780460D01*
X6143992Y-1780460D02*
X6163039Y-1789984D01*
X6163039Y-1789984D02*
X6182087Y-1789984D01*
X6239230Y-1780460D02*
X6258277Y-1789984D01*
X6258277Y-1789984D02*
X6296373Y-1789984D01*
X6296373Y-1789984D02*
X6315420Y-1780460D01*
X6315420Y-1780460D02*
X6324944Y-1761412D01*
X6324944Y-1761412D02*
X6324944Y-1751888D01*
X6324944Y-1751888D02*
X6315420Y-1732841D01*
X6315420Y-1732841D02*
X6296373Y-1723317D01*
X6296373Y-1723317D02*
X6267801Y-1723317D01*
X6267801Y-1723317D02*
X6248754Y-1713793D01*
X6248754Y-1713793D02*
X6239230Y-1694746D01*
X6239230Y-1694746D02*
X6239230Y-1685222D01*
X6239230Y-1685222D02*
X6248754Y-1666174D01*
X6248754Y-1666174D02*
X6267801Y-1656650D01*
X6267801Y-1656650D02*
X6296373Y-1656650D01*
X6296373Y-1656650D02*
X6315420Y-1666174D01*
X6391611Y-1866174D02*
X6401135Y-1856650D01*
X6401135Y-1856650D02*
X6420182Y-1828079D01*
X6420182Y-1828079D02*
X6429706Y-1809031D01*
X6429706Y-1809031D02*
X6439230Y-1780460D01*
X6439230Y-1780460D02*
X6448754Y-1732841D01*
X6448754Y-1732841D02*
X6448754Y-1694746D01*
X6448754Y-1694746D02*
X6439230Y-1647127D01*
X6439230Y-1647127D02*
X6429706Y-1618555D01*
X6429706Y-1618555D02*
X6420182Y-1599508D01*
X6420182Y-1599508D02*
X6401135Y-1570936D01*
X6401135Y-1570936D02*
X6391611Y-1561412D01*
M02*
