M48
; DRILL file {KiCad 9.0.7} date 2026-07-04T15:52:44+0200
; FORMAT={-:-/ absolute / metric / decimal}
; #@! TF.CreationDate,2026-07-04T15:52:44+02:00
; #@! TF.GenerationSoftware,Kicad,Pcbnew,9.0.7
; #@! TF.FileFunction,Plated,1,2,PTH
FMAT,2
METRIC
; #@! TA.AperFunction,Plated,PTH,ComponentDrill
T1C0.800
; #@! TA.AperFunction,Plated,PTH,ComponentDrill
T2C0.864
; #@! TA.AperFunction,Plated,PTH,ComponentDrill
T3C1.000
; #@! TA.AperFunction,Plated,PTH,ComponentDrill
T4C1.400
; #@! TA.AperFunction,Plated,PTH,ComponentDrill
T5C1.800
%
G90
G05
T1
X33.843Y49.276
X35.843Y49.276
X37.084Y41.87
X37.084Y36.87
X37.084Y29.17
X37.084Y24.17
X40.64Y53.34
X40.894Y48.26
X48.26Y53.34
X48.514Y48.26
X50.84Y26.336
X50.84Y21.336
X52.324Y42.124
X52.324Y37.124
X58.96Y32.258
X60.96Y32.258
T2
X41.148Y41.91
X41.148Y39.37
X41.148Y36.83
X41.148Y34.29
X48.768Y41.91
X48.768Y39.37
X48.768Y36.83
X48.768Y34.29
T3
X43.434Y27.913
X43.434Y25.373
X43.434Y22.833
X43.434Y17.753
X43.434Y15.213
X66.04Y25.36
X66.04Y22.86
X66.04Y20.36
T4
X7.996Y54.343
X7.996Y38.113
X20.696Y54.343
X20.696Y38.113
X67.225Y55.377
X67.225Y39.147
X79.925Y55.377
X79.925Y39.147
T3
G00X23.16Y16.16
M15
G01X22.56Y16.16
M16
G05
G00X23.16Y10.16
M15
G01X22.56Y10.16
M16
G05
G00X27.56Y12.86
M15
G01X27.56Y13.46
M16
G05
T5
G00X73.24Y27.26
M15
G01X72.84Y27.26
M16
G05
G00X73.24Y18.46
M15
G01X72.84Y18.46
M16
G05
M30
