%TF.GenerationSoftware,KiCad,Pcbnew,9.0.7*%
%TF.CreationDate,2026-07-04T15:52:33+02:00*%
%TF.ProjectId,TL082CP,544c3038-3243-4502-9e6b-696361645f70,rev?*%
%TF.SameCoordinates,PX5a3b5d8PY7a91ee0*%
%TF.FileFunction,Copper,L2,Bot*%
%TF.FilePolarity,Positive*%
%FSLAX46Y46*%
G04 Gerber Fmt 4.6, Leading zero omitted, Abs format (unit mm)*
G04 Created by KiCad (PCBNEW 9.0.7) date 2026-07-04 15:52:33*
%MOMM*%
%LPD*%
G01*
G04 APERTURE LIST*
G04 Aperture macros list*
%AMRoundRect*
0 Rectangle with rounded corners*
0 $1 Rounding radius*
0 $2 $3 $4 $5 $6 $7 $8 $9 X,Y pos of 4 corners*
0 Add a 4 corners polygon primitive as box body*
4,1,4,$2,$3,$4,$5,$6,$7,$8,$9,$2,$3,0*
0 Add four circle primitives for the rounded corners*
1,1,$1+$1,$2,$3*
1,1,$1+$1,$4,$5*
1,1,$1+$1,$6,$7*
1,1,$1+$1,$8,$9*
0 Add four rect primitives between the rounded corners*
20,1,$1+$1,$2,$3,$4,$5,0*
20,1,$1+$1,$4,$5,$6,$7,0*
20,1,$1+$1,$6,$7,$8,$9,0*
20,1,$1+$1,$8,$9,$2,$3,0*%
G04 Aperture macros list end*
%TA.AperFunction,ComponentPad*%
%ADD10C,1.600000*%
%TD*%
%TA.AperFunction,ComponentPad*%
%ADD11C,3.000000*%
%TD*%
%TA.AperFunction,ComponentPad*%
%ADD12R,1.371600X1.371600*%
%TD*%
%TA.AperFunction,ComponentPad*%
%ADD13C,1.371600*%
%TD*%
%TA.AperFunction,ComponentPad*%
%ADD14R,3.000000X1.500000*%
%TD*%
%TA.AperFunction,ComponentPad*%
%ADD15O,3.000000X1.500000*%
%TD*%
%TA.AperFunction,ComponentPad*%
%ADD16R,1.508000X1.508000*%
%TD*%
%TA.AperFunction,ComponentPad*%
%ADD17C,1.508000*%
%TD*%
%TA.AperFunction,ComponentPad*%
%ADD18O,4.600000X2.300000*%
%TD*%
%TA.AperFunction,ComponentPad*%
%ADD19O,3.016000X1.508000*%
%TD*%
%TA.AperFunction,ComponentPad*%
%ADD20O,1.508000X3.016000*%
%TD*%
%TA.AperFunction,ComponentPad*%
%ADD21RoundRect,0.250000X-0.550000X-0.550000X0.550000X-0.550000X0.550000X0.550000X-0.550000X0.550000X0*%
%TD*%
G04 APERTURE END LIST*
D10*
%TO.P,R1,1*%
%TO.N,Net-(U2A-+)*%
X48514000Y48260000D03*
%TO.P,R1,2*%
%TO.N,Net-(C1-Pad2)*%
X40894000Y48260000D03*
%TD*%
D11*
%TO.P,J1,S*%
%TO.N,/audio_signal/Audio-IN*%
X20696000Y54343000D03*
%TO.P,J1,SN*%
%TO.N,unconnected-(J1-PadSN)*%
X20696000Y38113000D03*
%TO.P,J1,T*%
%TO.N,GND*%
X7996000Y54343000D03*
%TO.P,J1,TN*%
%TO.N,unconnected-(J1-PadTN)*%
X7996000Y38113000D03*
%TD*%
D10*
%TO.P,C5,1*%
%TO.N,+12V*%
X50840000Y21336000D03*
%TO.P,C5,2*%
%TO.N,GND*%
X50840000Y26336000D03*
%TD*%
D12*
%TO.P,U2,1,OUT*%
%TO.N,Net-(U2A-OUT)*%
X41148000Y41910000D03*
D13*
%TO.P,U2,2,-*%
%TO.N,GND*%
X41148000Y39370000D03*
%TO.P,U2,3,+*%
%TO.N,Net-(U2A-+)*%
X41148000Y36830000D03*
%TO.P,U2,4,V-*%
%TO.N,-12V*%
X41148000Y34290000D03*
%TO.P,U2,5*%
%TO.N,N/C*%
X48768000Y34290000D03*
%TO.P,U2,6*%
X48768000Y36830000D03*
%TO.P,U2,7*%
X48768000Y39370000D03*
%TO.P,U2,8,V+*%
%TO.N,+12V*%
X48768000Y41910000D03*
%TD*%
D14*
%TO.P,U1,1,-VIN*%
%TO.N,/dual supply voltage/-VIN*%
X43434000Y15213500D03*
D15*
%TO.P,U1,2,+VIN*%
%TO.N,/dual supply voltage/+VIN*%
X43434000Y17753500D03*
%TO.P,U1,4,+VOUT*%
%TO.N,+12V*%
X43434000Y22833500D03*
%TO.P,U1,5,Common*%
%TO.N,GND*%
X43434000Y25373500D03*
%TO.P,U1,6,-VOUT*%
%TO.N,-12V*%
X43434000Y27913500D03*
%TD*%
D16*
%TO.P,R3,1*%
%TO.N,Net-(U2A-+)*%
X66040000Y25360000D03*
D17*
%TO.P,R3,2*%
%TO.N,/audio_signal/Audio-OUT*%
X66040000Y22860000D03*
%TO.P,R3,3*%
%TO.N,GND*%
X66040000Y20360000D03*
D18*
%TO.P,R3,S1*%
%TO.N,N/C*%
X73040000Y27260000D03*
%TO.P,R3,S2*%
X73040000Y18460000D03*
%TD*%
D10*
%TO.P,C6,1*%
%TO.N,-12V*%
X37084000Y29170000D03*
%TO.P,C6,2*%
%TO.N,GND*%
X37084000Y24170000D03*
%TD*%
D19*
%TO.P,J3,1*%
%TO.N,/dual supply voltage/+VIN*%
X22860000Y16160000D03*
%TO.P,J3,2*%
%TO.N,/dual supply voltage/-VIN*%
X22860000Y10160000D03*
D20*
%TO.P,J3,3*%
%TO.N,unconnected-(J3-Pad3)*%
X27560000Y13160000D03*
%TD*%
D10*
%TO.P,C4,1*%
%TO.N,+12V*%
X52324000Y42124000D03*
%TO.P,C4,2*%
%TO.N,GND*%
X52324000Y37124000D03*
%TD*%
D21*
%TO.P,C1,1*%
%TO.N,/audio_signal/Audio-IN*%
X33842888Y49276000D03*
D10*
%TO.P,C1,2*%
%TO.N,Net-(C1-Pad2)*%
X35842888Y49276000D03*
%TD*%
%TO.P,R2,1*%
%TO.N,/audio_signal/Audio-IN*%
X40640000Y53340000D03*
%TO.P,R2,2*%
%TO.N,GND*%
X48260000Y53340000D03*
%TD*%
D21*
%TO.P,C2,1*%
%TO.N,Net-(U2A-OUT)*%
X58960000Y32258000D03*
D10*
%TO.P,C2,2*%
%TO.N,/audio_signal/Audio-OUT*%
X60960000Y32258000D03*
%TD*%
D11*
%TO.P,J2,S*%
%TO.N,/audio_signal/Audio-OUT*%
X79925000Y55376750D03*
%TO.P,J2,SN*%
%TO.N,unconnected-(J2-PadSN)*%
X79925000Y39146750D03*
%TO.P,J2,T*%
%TO.N,GND*%
X67225000Y55376750D03*
%TO.P,J2,TN*%
%TO.N,unconnected-(J2-PadTN)*%
X67225000Y39146750D03*
%TD*%
D10*
%TO.P,C3,1*%
%TO.N,-12V*%
X37084000Y36870000D03*
%TO.P,C3,2*%
%TO.N,GND*%
X37084000Y41870000D03*
%TD*%
M02*
